<svg width="48" height="48" viewBox="0 0 48 48" fill="none" xmlns="http://www.w3.org/2000/svg">
<path d="M33.1875 13.875H32.0625V12H30.1875V13.875H17.8125V12H15.9375V13.875H14.8125C13.2617 13.875 12 15.1367 12 16.6875V33.1875C12 34.7383 13.2617 36 14.8125 36H33.1875C34.7383 36 36 34.7383 36 33.1875V16.6875C36 15.1367 34.7383 13.875 33.1875 13.875ZM34.125 33.1875C34.125 33.7044 33.7044 34.125 33.1875 34.125H14.8125C14.2956 34.125 13.875 33.7044 13.875 33.1875V20.8125H34.125V33.1875ZM34.125 18.9375H13.875V16.6875C13.875 16.1706 14.2956 15.75 14.8125 15.75H15.9375V17.625H17.8125V15.75H30.1875V17.625H32.0625V15.75H33.1875C33.7044 15.75 34.125 16.1706 34.125 16.6875V18.9375Z" fill="white"/>
<path d="M17.4375 22.7812H15.5625V24.6562H17.4375V22.7812Z" fill="white"/>
<path d="M21.1875 22.7812H19.3125V24.6562H21.1875V22.7812Z" fill="white"/>
<path d="M24.9375 22.7812H23.0625V24.6562H24.9375V22.7812Z" fill="white"/>
<path d="M28.6875 22.7812H26.8125V24.6562H28.6875V22.7812Z" fill="white"/>
<path d="M32.4375 22.7812H30.5625V24.6562H32.4375V22.7812Z" fill="white"/>
<path d="M17.4375 26.5312H15.5625V28.4062H17.4375V26.5312Z" fill="white"/>
<path d="M21.1875 26.5312H19.3125V28.4062H21.1875V26.5312Z" fill="white"/>
<path d="M24.9375 26.5312H23.0625V28.4062H24.9375V26.5312Z" fill="white"/>
<path d="M28.6875 26.5312H26.8125V28.4062H28.6875V26.5312Z" fill="white"/>
<path d="M17.4375 30.2812H15.5625V32.1562H17.4375V30.2812Z" fill="white"/>
<path d="M21.1875 30.2812H19.3125V32.1562H21.1875V30.2812Z" fill="white"/>
<path d="M24.9375 30.2812H23.0625V32.1562H24.9375V30.2812Z" fill="white"/>
<path d="M28.6875 30.2812H26.8125V32.1562H28.6875V30.2812Z" fill="white"/>
<path d="M32.4375 26.5312H30.5625V28.4062H32.4375V26.5312Z" fill="white"/>
</svg>
