<svg width="48" height="48" viewBox="0 0 48 48" fill="none" xmlns="http://www.w3.org/2000/svg">
<g clip-path="url(#clip0)">
<path d="M35.38 19.5528C34.5576 18.7304 33.2193 18.7304 32.3966 19.553C32.1436 19.8063 30.528 21.4231 30.2812 21.6702V16.0981C30.2812 15.5347 30.0618 15.005 29.6634 14.6066L27.6747 12.6178C27.2763 12.2194 26.7466 12 26.1832 12H14.1094C12.9463 12 12 12.9463 12 14.1094V33.8906C12 35.0537 12.9463 36 14.1094 36H28.1719C29.335 36 30.2812 35.0537 30.2812 33.8906V27.639L35.3799 22.536C36.2043 21.7116 36.2045 20.3773 35.38 19.5528ZM26.0625 13.4062C26.1954 13.4062 26.4514 13.3832 26.6804 13.6122L28.6691 15.6009C28.8922 15.8241 28.875 16.0687 28.875 16.2188H26.0625V13.4062ZM28.875 33.8906C28.875 34.2783 28.5596 34.5938 28.1719 34.5938H14.1094C13.7217 34.5938 13.4062 34.2783 13.4062 33.8906V14.1094C13.4062 13.7217 13.7217 13.4062 14.1094 13.4062H24.6562V16.9219C24.6562 17.3102 24.9711 17.625 25.3594 17.625H28.875V23.0776C28.875 23.0776 26.8006 25.1538 26.8005 25.1539L25.8066 26.1478C25.7295 26.225 25.6712 26.3191 25.6367 26.4226L24.6423 29.4058C24.5581 29.6584 24.6239 29.937 24.8122 30.1253C25.0008 30.3139 25.2795 30.3793 25.5317 30.2952L28.5149 29.3008C28.6184 29.2663 28.7125 29.2081 28.7897 29.1309L28.875 29.0456V33.8906ZM27.2981 26.645L28.2925 27.6394L27.9127 28.0192L26.4211 28.5164L26.9183 27.0248L27.2981 26.645ZM29.2867 26.6448L28.2923 25.6504C28.8218 25.1205 31.1735 22.7668 31.6722 22.2676L32.6666 23.262L29.2867 26.6448ZM34.3854 21.5418L33.6606 22.2672L32.6662 21.2729L33.3913 20.5472C33.6656 20.273 34.1115 20.2731 34.3857 20.5472C34.6598 20.8214 34.6612 21.2659 34.3854 21.5418Z" fill="white"/>
<path d="M25.3594 19.0312H15.5156C15.1273 19.0312 14.8125 19.3461 14.8125 19.7344C14.8125 20.1227 15.1273 20.4375 15.5156 20.4375H25.3594C25.7477 20.4375 26.0625 20.1227 26.0625 19.7344C26.0625 19.3461 25.7477 19.0312 25.3594 19.0312Z" fill="white"/>
<path d="M22.5469 21.8438H15.5156C15.1273 21.8438 14.8125 22.1586 14.8125 22.5469C14.8125 22.9352 15.1273 23.25 15.5156 23.25H22.5469C22.9352 23.25 23.25 22.9352 23.25 22.5469C23.25 22.1586 22.9352 21.8438 22.5469 21.8438Z" fill="white"/>
<path d="M22.5469 24.6562H15.5156C15.1273 24.6562 14.8125 24.9711 14.8125 25.3594C14.8125 25.7477 15.1273 26.0625 15.5156 26.0625H22.5469C22.9352 26.0625 23.25 25.7477 23.25 25.3594C23.25 24.9711 22.9352 24.6562 22.5469 24.6562Z" fill="white"/>
<path d="M22.5469 27.4688H15.5156C15.1273 27.4688 14.8125 27.7836 14.8125 28.1719C14.8125 28.5602 15.1273 28.875 15.5156 28.875H22.5469C22.9352 28.875 23.25 28.5602 23.25 28.1719C23.25 27.7836 22.9352 27.4688 22.5469 27.4688Z" fill="white"/>
<path d="M25.3594 31.7812H21.1406C20.7523 31.7812 20.4375 32.0961 20.4375 32.4844C20.4375 32.8727 20.7523 33.1875 21.1406 33.1875H25.3594C25.7477 33.1875 26.0625 32.8727 26.0625 32.4844C26.0625 32.0961 25.7477 31.7812 25.3594 31.7812Z" fill="white"/>
</g>
<defs>
<clipPath id="clip0">
<rect width="24" height="24" fill="white" transform="translate(12 12)"/>
</clipPath>
</defs>
</svg>
