<svg width="48" height="48" viewBox="0 0 48 48" fill="none" xmlns="http://www.w3.org/2000/svg">
<path d="M35.9663 25.3587C35.9663 25.3586 35.9663 25.3585 35.9662 25.3584L31.4349 13.9807C31.3387 13.7389 31.0647 13.6209 30.823 13.7171C30.8228 13.7171 30.8226 13.7172 30.8224 13.7173L12.4396 21.0372C12.3646 21.0696 12.2996 21.1213 12.2511 21.187C12.0982 21.2665 12.0016 21.4237 12 21.596V33.8452C12 34.1054 12.2109 34.3164 12.4711 34.3164H32.2584C32.5186 34.3164 32.7296 34.1054 32.7296 33.8452V27.1553L35.7033 25.9708C35.945 25.8744 36.0627 25.6004 35.9663 25.3587ZM31.7873 33.3741H12.9423V22.0671H31.7873V33.3741ZM19.8607 21.1272L27.7493 17.9838C28.4533 18.7239 29.4288 19.1445 30.4502 19.1485L31.237 21.1272H19.8607ZM32.7296 26.1433V21.596C32.7296 21.3358 32.5186 21.1248 32.2584 21.1248H32.2509L31.2526 18.6175C31.2415 18.5966 31.2286 18.5767 31.2139 18.5581C31.1634 18.3312 30.9533 18.1764 30.7216 18.1954C29.7712 18.282 28.8415 17.8817 28.2515 17.1316C28.1047 16.9504 27.8466 16.9053 27.647 17.026C27.6247 17.0287 27.6025 17.0328 27.5806 17.0383L17.9499 20.8733C17.8333 20.919 17.7401 21.0096 17.6912 21.1248H14.7665L30.7339 14.767L34.917 25.2707L32.7296 26.1433Z" fill="white"/>
<path d="M14.2192 30.1935C15.1339 30.4638 15.8496 31.1787 16.1211 32.0931C16.1807 32.2926 16.3642 32.4294 16.5725 32.4294C16.5969 32.4279 16.6212 32.4243 16.645 32.4186C16.6662 32.4246 16.6878 32.429 16.7096 32.4318H28.0166C28.036 32.4293 28.0552 32.4253 28.0741 32.42C28.3095 32.4773 28.5467 32.3329 28.604 32.0975C28.6042 32.0967 28.6044 32.0958 28.6046 32.0949C28.8753 31.1797 29.5912 30.4638 30.5065 30.193C30.7285 30.1252 30.8664 29.904 30.8297 29.6748C30.836 29.6519 30.8405 29.6286 30.8434 29.605V25.836C30.8406 25.8124 30.8359 25.7891 30.8292 25.7663C30.8662 25.537 30.7282 25.3157 30.506 25.2481C29.5908 24.9773 28.8751 24.2612 28.605 23.3457C28.5368 23.1222 28.3135 22.9839 28.083 23.0225C28.0612 23.0164 28.039 23.012 28.0166 23.0093H16.7096C16.6858 23.0121 16.6623 23.0168 16.6394 23.0234C16.4102 22.9869 16.1892 23.1248 16.1211 23.3466C15.8502 24.2617 15.1344 24.9773 14.2192 25.2481C13.9972 25.3159 13.8593 25.5371 13.896 25.7663C13.8899 25.7892 13.8855 25.8125 13.8828 25.836V29.605C13.8855 29.6272 13.8899 29.6491 13.896 29.6705C13.8574 29.9012 13.9956 30.1249 14.2192 30.1935ZM14.8251 26.0273C15.7711 25.6473 16.5209 24.8976 16.9008 23.9515H27.8249C28.205 24.8976 28.955 25.6473 29.9011 26.0273V29.4138C28.9554 29.7941 28.2057 30.5438 27.8253 31.4896H16.9008C16.5205 30.5438 15.7708 29.7941 14.8251 29.4138V26.0273Z" fill="white"/>
<path d="M22.3658 30.5473C23.927 30.5473 25.1926 29.2817 25.1926 27.7205C25.1926 26.1594 23.927 24.8938 22.3658 24.8938C20.8046 24.8938 19.5391 26.1594 19.5391 27.7205C19.5406 29.2811 20.8053 30.5458 22.3658 30.5473ZM22.3658 25.836C23.4066 25.836 24.2503 26.6798 24.2503 27.7205C24.2503 28.7613 23.4066 29.6051 22.3658 29.6051C21.325 29.6051 20.4813 28.7613 20.4813 27.7205C20.4813 26.6798 21.325 25.836 22.3658 25.836Z" fill="white"/>
<path d="M17.1833 28.4273C17.5735 28.4273 17.8899 28.1109 17.8899 27.7206C17.8899 27.3303 17.5735 27.0139 17.1833 27.0139C16.793 27.0139 16.4766 27.3303 16.4766 27.7206C16.4766 28.1109 16.793 28.4273 17.1833 28.4273ZM17.1833 27.485C17.3133 27.485 17.4188 27.5905 17.4188 27.7206C17.4188 27.8507 17.3133 27.9562 17.1833 27.9562C17.0532 27.9562 16.9477 27.8507 16.9477 27.7206C16.9477 27.5905 17.0532 27.485 17.1833 27.485Z" fill="white"/>
<path d="M27.5465 28.4273C27.9368 28.4273 28.2532 28.1109 28.2532 27.7206C28.2532 27.3303 27.9368 27.0139 27.5465 27.0139C27.1563 27.0139 26.8398 27.3303 26.8398 27.7206C26.8398 28.1109 27.1563 28.4273 27.5465 28.4273ZM27.5465 27.485C27.6766 27.485 27.7821 27.5905 27.7821 27.7206C27.7821 27.8507 27.6766 27.9562 27.5465 27.9562C27.4164 27.9562 27.311 27.8507 27.311 27.7206C27.311 27.5905 27.4164 27.485 27.5465 27.485Z" fill="white"/>
</svg>
