<svg width="48" height="48" viewBox="0 0 48 48" fill="none" xmlns="http://www.w3.org/2000/svg">
<path d="M23.829 23.5609C25.4172 23.5609 26.7925 22.9912 27.9163 21.8673C29.04 20.7436 29.6096 19.3687 29.6096 17.7803C29.6096 16.1924 29.04 14.8172 27.9161 13.6932C26.7922 12.5696 25.4171 12 23.829 12C22.2405 12 20.8656 12.5696 19.7419 13.6934C18.6182 14.8171 18.0483 16.1922 18.0483 17.7803C18.0483 19.3687 18.6182 20.7438 19.7421 21.8675C20.866 22.991 22.2411 23.5609 23.829 23.5609Z" fill="white"/>
<path d="M33.9435 30.4548C33.9111 29.9871 33.8456 29.477 33.7491 28.9383C33.6517 28.3956 33.5262 27.8825 33.3761 27.4136C33.221 26.9289 33.0101 26.4503 32.7493 25.9916C32.4787 25.5155 32.1608 25.101 31.8041 24.7598C31.4312 24.403 30.9745 24.116 30.4464 23.9068C29.9202 23.6986 29.337 23.5931 28.7131 23.5931C28.4681 23.5931 28.2312 23.6936 27.7736 23.9915C27.492 24.1752 27.1626 24.3876 26.7949 24.6225C26.4805 24.8228 26.0546 25.0105 25.5286 25.1804C25.0153 25.3465 24.4942 25.4307 23.9799 25.4307C23.4655 25.4307 22.9446 25.3465 22.4308 25.1804C21.9053 25.0107 21.4794 24.823 21.1653 24.6227C20.8011 24.39 20.4716 24.1776 20.1857 23.9913C19.7287 23.6934 19.4916 23.5929 19.2466 23.5929C18.6226 23.5929 18.0396 23.6986 17.5135 23.9069C16.9858 24.1159 16.5289 24.4028 16.1556 24.76C15.7991 25.1013 15.481 25.5157 15.2108 25.9916C14.9502 26.4503 14.7393 26.9287 14.584 27.4138C14.434 27.8827 14.3086 28.3956 14.2112 28.9383C14.1147 29.4762 14.0491 29.9866 14.0167 30.4553C13.9849 30.9145 13.9688 31.3912 13.9688 31.8725C13.9688 33.1253 14.367 34.1396 15.1523 34.8875C15.928 35.6256 16.9543 36.0001 18.2023 36.0001H29.7585C31.0065 36.0001 32.0325 35.6258 32.8083 34.8875C33.5938 34.1401 33.9921 33.1257 33.9921 31.8724C33.9919 31.3888 33.9756 30.9118 33.9435 30.4548Z" fill="white"/>
</svg>
