<svg width="36" height="36" viewBox="0 0 36 36" fill="none" xmlns="http://www.w3.org/2000/svg">
<path d="M26.7566 17.0858C27.4594 16.5919 27.9248 15.7704 27.9248 14.8444C27.9248 13.3296 26.6996 12.1044 25.1848 12.1044C23.67 12.1044 22.4448 13.3296 22.4448 14.8444C22.4448 15.7704 22.9054 16.5919 23.613 17.0858C23.0099 17.2947 22.459 17.6177 21.9937 18.0355C21.3526 17.4894 20.5975 17.0716 19.7713 16.8246C20.7732 16.2168 21.4476 15.1103 21.4476 13.8519C21.4476 11.9334 19.8947 10.3806 17.9763 10.3806C16.0578 10.3806 14.5049 11.9382 14.5049 13.8519C14.5049 15.1103 15.1745 16.2168 16.1812 16.8246C15.3645 17.0716 14.6189 17.4847 13.9826 18.0213C13.5172 17.6129 12.9759 17.2947 12.3823 17.0905C13.0851 16.5967 13.5505 15.7752 13.5505 14.8492C13.5505 13.3343 12.3253 12.1091 10.8104 12.1091C9.29561 12.1091 8.07044 13.3343 8.07044 14.8492C8.07044 15.7752 8.53106 16.5967 9.23862 17.0905C7.35338 17.7411 6 19.5314 6 21.6351V21.9485C6 21.958 6.0095 21.9675 6.01899 21.9675H11.8267C11.7934 22.2287 11.7744 22.4993 11.7744 22.77V23.0929C11.7744 24.489 12.9046 25.6192 14.3008 25.6192H21.6613C23.0574 25.6192 24.1876 24.489 24.1876 23.0929V22.77C24.1876 22.4993 24.1686 22.2287 24.1353 21.9675H29.981C29.9905 21.9675 30 21.958 30 21.9485V21.6351C29.9905 19.5266 28.6419 17.7364 26.7566 17.0858ZM23.2046 14.8397C23.2046 13.7475 24.0926 12.8594 25.1848 12.8594C26.277 12.8594 27.165 13.7475 27.165 14.8397C27.165 15.9176 26.296 16.7961 25.2228 16.8199C25.2085 16.8199 25.1991 16.8199 25.1848 16.8199C25.1706 16.8199 25.1611 16.8199 25.1468 16.8199C24.0689 16.8009 23.2046 15.9224 23.2046 14.8397ZM15.2552 13.8519C15.2552 12.3561 16.4709 11.1404 17.9668 11.1404C19.4626 11.1404 20.6783 12.3561 20.6783 13.8519C20.6783 15.2955 19.5433 16.478 18.1235 16.5587C18.0712 16.5587 18.019 16.5587 17.9668 16.5587C17.9145 16.5587 17.8623 16.5587 17.8101 16.5587C16.3902 16.478 15.2552 15.2955 15.2552 13.8519ZM8.81599 14.8397C8.81599 13.7475 9.704 12.8594 10.7962 12.8594C11.8884 12.8594 12.7764 13.7475 12.7764 14.8397C12.7764 15.9176 11.9074 16.7961 10.8342 16.8199C10.8199 16.8199 10.8104 16.8199 10.7962 16.8199C10.782 16.8199 10.7725 16.8199 10.7582 16.8199C9.685 16.8009 8.81599 15.9224 8.81599 14.8397ZM11.9596 21.2029H6.76929C6.98298 19.18 8.69252 17.5939 10.7677 17.5797C10.7772 17.5797 10.7867 17.5797 10.7962 17.5797C10.8057 17.5797 10.8152 17.5797 10.8247 17.5797C11.8124 17.5844 12.7147 17.9501 13.4127 18.5437C12.7289 19.2845 12.2208 20.1962 11.9596 21.2029ZM23.4183 23.0929C23.4183 24.0664 22.6252 24.8594 21.6518 24.8594H14.2913C13.3178 24.8594 12.5247 24.0664 12.5247 23.0929V22.77C12.5247 19.8211 14.8801 17.4087 17.8101 17.3232C17.8623 17.328 17.9193 17.328 17.9715 17.328C18.0237 17.328 18.0807 17.328 18.133 17.3232C21.0629 17.4087 23.4183 19.8211 23.4183 22.77V23.0929ZM23.9834 21.2029C23.7222 20.201 23.2236 19.3034 22.5445 18.5626C23.2473 17.9548 24.1591 17.5892 25.1563 17.5797C25.1658 17.5797 25.1753 17.5797 25.1848 17.5797C25.1943 17.5797 25.2038 17.5797 25.2133 17.5797C27.2885 17.5939 28.998 19.18 29.2117 21.2029H23.9834Z" fill="black"/>
</svg>
