<svg width="36" height="36" viewBox="0 0 36 36" fill="none" xmlns="http://www.w3.org/2000/svg">
<g clip-path="url(#clip0)">
<path d="M22.3531 9.31436V10.4965C22.3531 10.7129 22.4823 10.9063 22.6823 10.9891C22.8851 11.0731 23.1126 11.0244 23.2635 10.8735L24.7476 9.38931H28.4949C29.2571 9.38931 29.8772 8.7692 29.8772 8.00702V5.3823C29.8772 4.62011 29.2571 4 28.4949 4H22.8022C22.04 4 21.4199 4.62011 21.4199 5.3823V8.00697C21.4199 8.5997 21.8035 9.12508 22.3531 9.31436ZM22.1227 5.3823C22.1227 5.00762 22.4275 4.7028 22.8022 4.7028H28.4949C28.8696 4.7028 29.1744 5.00762 29.1744 5.3823V8.00697C29.1744 8.38164 28.8696 8.68647 28.4949 8.68647H24.6644C24.5305 8.68647 24.4046 8.73859 24.3096 8.83333L23.056 10.087V9.16164C23.056 8.926 22.8898 8.71994 22.6609 8.67166C22.3491 8.60589 22.1228 8.32633 22.1228 8.00702V5.3823H22.1227Z" fill="black"/>
<path d="M29.0613 24.6258H28.393V13.5726C28.393 12.8442 27.8004 12.2516 27.072 12.2516H20.4971C20.303 12.2516 20.1457 12.4089 20.1457 12.603C20.1457 12.7971 20.303 12.9544 20.4971 12.9544H27.0719C27.4128 12.9544 27.6902 13.2317 27.6902 13.5726V24.6259H26.5188V15.1209C26.5188 14.5722 26.0724 14.1258 25.5237 14.1258H18.3452C18.4483 13.8576 18.5195 13.5732 18.5522 13.2768C18.9255 13.1946 19.2056 12.8611 19.2056 12.4633C19.2056 12.1419 19.2056 9.71479 19.2056 9.42552C19.2056 8.73111 18.6437 8.16547 17.9506 8.15957C17.9282 7.48105 17.3692 6.93604 16.6854 6.93604H13.5337C12.1793 6.93604 11.0774 8.03793 11.0774 9.39233V12.4633C11.0774 12.8611 11.3575 13.1946 11.7309 13.2768C11.7635 13.5733 11.8347 13.8576 11.9379 14.1258H10.4756C9.92696 14.1258 9.48057 14.5722 9.48057 15.1209V17.9915C9.02016 18.1643 8.62018 18.4507 8.30921 18.8123V13.5726C8.30921 13.2317 8.58652 12.9544 8.92745 12.9544H9.80373C9.99784 12.9544 10.1551 12.7971 10.1551 12.6029C10.1551 12.4088 9.99784 12.2515 9.80373 12.2515H8.92745C8.19901 12.2515 7.60641 12.8441 7.60641 13.5726V20.6929V24.6258H6.93802C6.42348 24.6258 6.00488 25.0444 6.00488 25.5589C6.00488 26.905 7.09988 28 8.44585 28H27.5535C28.8995 28 29.9945 26.905 29.9945 25.559C29.9945 25.0445 29.5758 24.6258 29.0613 24.6258ZM25.5237 14.8286C25.6849 14.8286 25.816 14.9597 25.816 15.1209V24.6259H22.6779V23.3383C22.6779 23.1442 22.5206 22.9869 22.3265 22.9869C22.1324 22.9869 21.9751 23.1442 21.9751 23.3383V24.6259H20.288V23.5108C20.288 23.3167 20.1307 23.1593 19.9366 23.1593C19.7424 23.1593 19.5851 23.3167 19.5851 23.5108V24.6259H16.7267L15.9691 20.3536L16.2598 19.8327C16.3159 19.845 16.3728 19.8519 16.4299 19.8519C16.6306 19.8519 16.8311 19.7762 16.9876 19.6259L18.2921 18.3555C18.3856 18.2645 18.4507 18.1538 18.4878 18.0355L20.4077 18.5991C21.3306 18.87 21.9752 19.731 21.9752 20.6928V21.6955C21.9752 21.8896 22.1325 22.0469 22.3266 22.0469C22.5207 22.0469 22.678 21.8896 22.678 21.6955V20.6928C22.678 19.4212 21.8259 18.283 20.6057 17.9247L18.2867 17.2439C18.2229 17.1829 18.1489 17.1328 18.0677 17.0967L17.5877 16.8828C17.4463 16.8198 17.2948 16.7941 17.1461 16.8037V15.6803C17.4693 15.4469 17.7507 15.1587 17.9763 14.8287H25.5237V14.8286ZM12.5171 17.7343L12.9879 17.5229C13.0653 17.4882 13.1555 17.4981 13.2234 17.5489L14.6103 18.5852L13.9291 19.1542C13.8905 19.1866 13.8343 19.1848 13.7979 19.1503L12.4964 17.8469V17.8468C12.4614 17.8118 12.4742 17.7536 12.5171 17.7343ZM16.4432 16.0718V17.145L15.1731 18.1285L13.8399 17.1323V16.0719C14.663 16.411 15.5968 16.4205 16.4432 16.0718ZM17.7817 17.7387C17.8249 17.7578 17.8378 17.8169 17.8018 17.852L16.499 19.1206C16.4621 19.1561 16.4051 19.1577 16.3662 19.1245C16.3662 19.1245 16.3662 19.1245 16.3662 19.1245L15.7334 18.5834L17.0637 17.5534C17.1317 17.5006 17.2229 17.4897 17.3016 17.5247L17.7817 17.7387ZM14.8851 19.9403L14.6231 19.4904L15.1742 19.03L15.6675 19.4519L15.3949 19.9403H14.8851ZM14.9776 20.6431H15.3066L16.0129 24.6258H14.2717L14.9776 20.6431ZM21.1304 25.3287C20.9885 25.6981 20.6309 25.9615 20.2121 25.9615H15.7872C15.3684 25.9615 15.0108 25.6981 14.8689 25.3287H21.1304ZM11.7802 9.39233C11.7802 8.42544 12.5668 7.63883 13.5337 7.63883H16.6854C16.9959 7.63883 17.2486 7.89144 17.2486 8.20199C17.2486 8.56607 17.5448 8.86232 17.9089 8.86232H17.9397C18.2502 8.86232 18.5028 9.11493 18.5028 9.42547V11.0712H18.2223C18.0652 11.0712 17.9373 10.9434 17.9373 10.7863V10.438C17.9373 9.73996 17.2559 9.24744 16.593 9.46644C15.6573 9.77568 14.6268 9.77577 13.6911 9.46668C13.69 9.4663 13.6886 9.46583 13.6872 9.46541C13.0261 9.24908 12.3458 9.73991 12.3458 10.4379V10.7863C12.3458 10.9434 12.2179 11.0713 12.0608 11.0713H11.7802V9.39233ZM11.7802 12.4633V11.7741H12.0608C12.6054 11.7741 13.0486 11.3309 13.0486 10.7863V10.4378C13.0486 10.2191 13.2624 10.065 13.4694 10.1336C13.4705 10.134 13.4718 10.1344 13.4731 10.1348C14.5504 10.4901 15.7367 10.4897 16.8136 10.1338C17.0206 10.0652 17.2345 10.219 17.2345 10.438V10.7863C17.2345 11.3309 17.6776 11.7741 18.2223 11.7741H18.5028V12.4633C18.5028 12.5351 18.4445 12.5934 18.3728 12.5934C18.1049 12.5934 17.8816 12.8037 17.8646 13.0722C17.7743 14.5047 16.5782 15.6269 15.1416 15.6269C13.7049 15.6269 12.5089 14.5047 12.4185 13.0722C12.4016 12.8037 12.1784 12.5934 11.9103 12.5934C11.8386 12.5934 11.7802 12.5351 11.7802 12.4633ZM10.4756 14.8286H12.3068C12.5324 15.1586 12.8138 15.4468 13.137 15.6802V16.8015C12.9894 16.7931 12.8395 16.8192 12.7 16.8818L12.2292 17.0931C12.1486 17.1293 12.0752 17.1793 12.0118 17.2401L10.1834 17.7767V15.1209C10.1834 14.9597 10.3145 14.8286 10.4756 14.8286ZM8.30921 20.6929C8.30921 19.731 8.95379 18.8701 9.87676 18.5991L9.93395 18.5824C9.93526 18.582 9.93652 18.5816 9.93784 18.5812L11.8094 18.0319C11.8459 18.146 11.9089 18.2532 11.9991 18.3435V18.3434L13.3029 19.6493C13.3041 19.6505 13.3053 19.6516 13.3065 19.6528C13.462 19.8042 13.6636 19.8808 13.8657 19.8808C13.9198 19.8808 13.9739 19.8746 14.0272 19.8636L14.3146 20.3573L13.558 24.6259H10.698V23.5108C10.698 23.3167 10.5406 23.1593 10.3465 23.1593C10.1524 23.1593 9.99512 23.3167 9.99512 23.5108V24.6259H8.30921V20.6929ZM27.5535 27.2972H8.44585C7.48745 27.2972 6.70768 26.5175 6.70768 25.559C6.70768 25.432 6.81099 25.3287 6.93802 25.3287H14.1372C14.2994 26.0908 14.9775 26.6643 15.7872 26.6643H20.2121C21.0219 26.6643 21.6999 26.0908 21.8621 25.3287H29.0613C29.1883 25.3287 29.2916 25.432 29.2916 25.559C29.2917 26.5174 28.5119 27.2972 27.5535 27.2972Z" fill="black"/>
</g>
<defs>
<clipPath id="clip0">
<rect width="24" height="24" fill="white" transform="translate(6 4)"/>
</clipPath>
</defs>
</svg>
