<svg width="36" height="36" viewBox="0 0 36 36" fill="none" xmlns="http://www.w3.org/2000/svg">
<g clip-path="url(#clip0)">
<path d="M28.125 18.2488C28.125 17.2447 27.3495 16.4178 26.3646 16.3326V12.8613C26.3646 9.86902 23.9337 7.43463 20.9456 7.43463H19.7966C19.5784 6.60974 18.8284 6 17.9394 6C17.0502 6 16.3004 6.60974 16.0822 7.43463H14.9332C14.3077 7.43463 13.7065 7.54138 13.1472 7.73749C13.1241 7.74445 13.1014 7.7525 13.0794 7.76166C11.0013 8.52155 9.51398 10.5207 9.51398 12.8613V16.3471C8.58746 16.4866 7.875 17.2863 7.875 18.249C7.875 19.0712 8.39484 19.7745 9.12378 20.0491C9.08679 20.3811 9.06812 20.7162 9.06812 21.0513C9.06812 25.9856 13.0767 30 18.0037 30C22.9307 30 26.939 25.9856 26.939 21.0513C26.939 20.7155 26.9203 20.3795 26.8832 20.0466C27.6085 19.7701 28.125 19.0686 28.125 18.2488ZM21.8015 8.93298V12.7022C21.8015 13.0906 22.1164 13.4053 22.5046 13.4053C22.8929 13.4053 23.2077 13.0906 23.2077 12.7022V9.54218C24.264 10.2671 24.9584 11.4846 24.9584 12.8613V16.3255H19.8609V8.84088H20.9456C21.2391 8.84088 21.5257 8.87256 21.8015 8.93298ZM17.4241 7.93011C17.4241 7.64117 17.6552 7.40625 17.9394 7.40625C18.2234 7.40625 18.4547 7.64136 18.4547 7.93011V16.3255H17.4241V7.93011ZM10.9202 12.8613C10.9202 11.495 11.6041 10.2858 12.6467 9.55884V12.7022C12.6467 13.0906 12.9617 13.4053 13.3499 13.4053C13.7382 13.4053 14.053 13.0906 14.053 12.7022V8.93829C14.3364 8.87457 14.6309 8.84088 14.9332 8.84088H16.0179V16.3255H10.9202V12.8613ZM9.28125 18.2488C9.28125 17.9637 9.51544 17.7318 9.80328 17.7318H26.1969C26.4846 17.7318 26.7188 17.9637 26.7188 18.2488C26.7188 18.5341 26.4846 18.7661 26.1969 18.7661H26.0984C26.0896 18.7659 26.081 18.7659 26.0722 18.7661H9.9353C9.92633 18.7659 9.91718 18.7659 9.9082 18.7661H9.80328C9.51544 18.7661 9.28125 18.5341 9.28125 18.2488ZM18.0037 28.5938C13.8521 28.5938 10.4744 25.2101 10.4744 21.0513C10.4744 20.7572 10.4914 20.4633 10.5251 20.1724H25.4822C25.5159 20.4635 25.5328 20.7574 25.5328 21.0513C25.5328 25.2101 22.1552 28.5938 18.0037 28.5938Z" fill="black"/>
<path d="M15.4668 23.3271C15.855 23.3271 16.1699 23.0121 16.1699 22.624V21.7207C16.1699 21.3325 15.855 21.0176 15.4668 21.0176C15.0784 21.0176 14.7637 21.3325 14.7637 21.7207V22.624C14.7637 23.0121 15.0784 23.3271 15.4668 23.3271Z" fill="black"/>
<path d="M20.5332 21.0176C20.145 21.0176 19.8301 21.3325 19.8301 21.7207V22.624C19.8301 23.0121 20.145 23.3271 20.5332 23.3271C20.9216 23.3271 21.2363 23.0121 21.2363 22.624V21.7207C21.2363 21.3325 20.9216 21.0176 20.5332 21.0176Z" fill="black"/>
<path d="M20.5326 24.3511C20.1444 24.3511 19.8295 24.666 19.8295 25.0542C19.8295 25.674 19.2778 25.8939 18.8052 25.8939H17.1942C16.7216 25.8939 16.1699 25.674 16.1699 25.0542C16.1699 24.666 15.855 24.3511 15.4668 24.3511C15.0784 24.3511 14.7637 24.666 14.7637 25.0542C14.7637 26.3555 15.7858 27.3002 17.1942 27.3002H18.8052C20.2136 27.3002 21.2357 26.3555 21.2357 25.0542C21.2357 24.6658 20.921 24.3511 20.5326 24.3511Z" fill="black"/>
</g>
<defs>
<clipPath id="clip0">
<rect width="24" height="24" fill="white" transform="translate(6 6)"/>
</clipPath>
</defs>
</svg>
