<svg width="34" height="34" viewBox="0 0 34 34" fill="none" xmlns="http://www.w3.org/2000/svg">
<g clip-path="url(#clip0)">
<path d="M21.3134 12.2727C21.0542 12.2727 20.8438 12.4822 20.8438 12.7413C20.8438 13.0002 21.0542 13.21 21.3134 13.21C21.5732 13.21 21.7831 13.0002 21.7831 12.7413C21.7831 12.4822 21.5732 12.2727 21.3134 12.2727Z" fill="black"/>
<path d="M12.7802 20.7893C12.5204 20.7893 12.3105 20.9993 12.3105 21.2581C12.3105 21.5173 12.5204 21.7268 12.7802 21.7268C13.0394 21.7268 13.2499 21.5173 13.2499 21.2581C13.2499 20.9993 13.0394 20.7893 12.7802 20.7893Z" fill="black"/>
<path d="M28.4861 7.8828C28.3276 7.84599 28.161 7.89378 28.0465 8.00914L26.0994 9.96782H25.1659L24.1383 8.90526V7.96062L26.0576 6.01659C26.1711 5.9016 26.2174 5.73625 26.1797 5.57896C26.1423 5.42186 26.0264 5.29515 25.873 5.24351C25.3909 5.08128 24.8863 4.99907 24.3732 4.99907C22.8435 4.99907 21.4537 5.71098 20.5603 6.95226C19.724 8.11424 19.4663 9.53825 19.8356 10.9011L16.376 14.3539L10.6123 8.5883V7.45671C10.6123 7.2921 10.5257 7.13939 10.3842 7.05479L7.06337 5.0659C6.87844 4.95512 6.64196 4.98424 6.48968 5.1364L5.1614 6.4619C5.00913 6.61406 4.97996 6.85008 5.09077 7.03465L7.08319 10.349C7.16795 10.4902 7.32077 10.5765 7.48571 10.5766L8.61914 10.577L14.3834 16.3426L10.937 19.7823C9.57151 19.4139 8.14397 19.6715 6.97916 20.5066C5.73619 21.3978 5.02344 22.7845 5.02344 24.3112C5.02344 24.8232 5.10581 25.3269 5.26836 25.8079C5.32028 25.9619 5.44852 26.0782 5.60704 26.1148C5.76573 26.1516 5.93213 26.1038 6.0468 25.9885L7.99372 24.03H8.93232L10.0017 25.0973V26.0341L8.0394 27.9772C7.92382 28.0916 7.87593 28.2577 7.91281 28.4161C7.9495 28.5743 8.066 28.7023 8.22029 28.7541C8.70225 28.9163 9.20696 28.9985 9.71993 28.9985C11.2496 28.9985 12.6388 28.287 13.5319 27.0464C14.3687 25.8839 14.6269 24.4593 14.2577 23.0965L17.0256 20.334L17.6597 21.0214L17.3687 21.3116C17.1853 21.4947 17.1853 21.7915 17.3687 21.9746C17.5522 22.1575 17.8494 22.1575 18.033 21.9746L18.2965 21.7117L24.2455 28.161C24.2499 28.1658 24.2545 28.1703 24.2591 28.1749C25.3598 29.2736 27.1433 29.2739 28.2446 28.1747C29.3428 27.0781 29.3428 25.2938 28.2446 24.1971C28.2399 24.1924 28.2349 24.1878 28.23 24.1832L21.7579 18.2572L22.0184 17.9972C22.2019 17.8143 22.2019 17.5174 22.0184 17.3343C21.835 17.1512 21.5377 17.1512 21.3541 17.3343L21.0651 17.6229L20.3751 16.9908L23.1564 14.215C23.5518 14.3204 23.9598 14.3739 24.3732 14.3739C26.963 14.3739 29.0697 12.2711 29.0697 9.68657C29.0697 9.17442 28.9873 8.67088 28.8247 8.18968C28.7728 8.03569 28.6446 7.91942 28.4861 7.8828ZM9.14642 9.77721C9.05836 9.68913 8.93892 9.64427 8.81417 9.64427L7.75191 9.64391L6.08496 6.8662L6.89458 6.05815L9.67296 7.72221V8.7824C9.67296 8.90654 9.72231 9.02556 9.81019 9.11345L15.7119 15.017L15.0475 15.6798L9.14642 9.77721ZM21.093 18.9208L27.5871 24.8668C28.3125 25.5984 28.3103 26.7831 27.5803 27.5121C26.8487 28.2423 25.6642 28.2445 24.9296 27.5185L18.9612 21.0481L21.093 18.9208ZM20.4003 18.2863L18.3244 20.3578L17.6903 19.6704L19.7103 17.6542L20.4003 18.2863ZM24.3732 13.4364C23.9624 13.4364 23.5584 13.3707 23.1728 13.241C23.0038 13.1844 22.817 13.228 22.6908 13.3538C20.3362 15.7038 15.2627 20.7672 13.3945 22.632C13.2683 22.7579 13.2245 22.9443 13.2815 23.1132C13.6719 24.2702 13.4852 25.5043 12.7689 26.4995C12.0547 27.4918 10.9433 28.061 9.71993 28.061C9.58251 28.061 9.44583 28.0535 9.31044 28.0391L10.8022 26.5618C10.891 26.4739 10.9411 26.3541 10.9411 26.2291V24.903C10.9411 24.7787 10.8915 24.6595 10.8035 24.5716L9.45886 23.2296C9.3708 23.1417 9.25136 23.0923 9.12679 23.0923H7.79814C7.67284 23.0923 7.55285 23.1423 7.46461 23.2309L5.9846 24.7197C5.96993 24.5846 5.96259 24.4482 5.96259 24.311C5.96259 23.0899 6.53279 21.9808 7.52717 21.268C8.52411 20.5532 9.76084 20.3666 10.9203 20.7564C11.0893 20.8133 11.2761 20.7696 11.4023 20.6436C11.4282 20.618 20.692 11.3721 20.6986 11.3655C20.8248 11.2395 20.8685 11.0533 20.8116 10.8844C20.421 9.7274 20.6074 8.49364 21.3231 7.49919C22.0379 6.50603 23.1495 5.93657 24.373 5.93657C24.5146 5.93657 24.6553 5.94444 24.7948 5.95982L23.334 7.4395C23.2474 7.52721 23.199 7.64531 23.199 7.76836V9.09441C23.199 9.21599 23.2462 9.33263 23.3307 9.41997L24.6284 10.7619C24.7168 10.8535 24.8388 10.9051 24.9663 10.9051H26.295C26.4201 10.9051 26.5401 10.8553 26.6283 10.7665L28.1083 9.27788C28.123 9.41301 28.1303 9.54942 28.1303 9.68657C28.1303 11.7542 26.4449 13.4364 24.3732 13.4364Z" fill="black"/>
<path d="M19.6534 13.7355L13.7761 19.6013C13.5929 19.7842 13.5929 20.081 13.7761 20.2641C13.9596 20.4472 14.257 20.4472 14.4405 20.2641L20.3177 14.3983C20.5012 14.2154 20.5012 13.9186 20.3177 13.7355C20.1343 13.5524 19.8369 13.5524 19.6534 13.7355Z" fill="black"/>
<path d="M25.5883 26.1876C25.7717 26.3701 26.0691 26.3701 26.2526 26.1865C26.4357 26.0032 26.4352 25.7064 26.2515 25.5236L22.0181 21.312C21.8344 21.1293 21.5369 21.1298 21.3539 21.3131C21.1707 21.4966 21.1712 21.7932 21.3549 21.9759L25.5883 26.1876Z" fill="black"/>
</g>
<defs>
<clipPath id="clip0">
<rect width="24" height="24" fill="white" transform="translate(5 5)"/>
</clipPath>
</defs>
</svg>
