<svg width="36" height="36" viewBox="0 0 36 36" fill="none" xmlns="http://www.w3.org/2000/svg">
<g clip-path="url(#clip0)">
<path d="M27.2 15.2C27.4209 15.2 27.6 15.0209 27.6 14.8V7.2C27.6 6.53726 27.0627 6 26.4 6H7.2C6.53726 6 6 6.53726 6 7.2V23.2C6 23.8627 6.53726 24.4 7.2 24.4H14.4C14.6209 24.4 14.8 24.2209 14.8 24C14.8 23.7791 14.6209 23.6 14.4 23.6H7.2C6.97909 23.6 6.8 23.4209 6.8 23.2V10H26.8V14.8C26.8 15.0209 26.9791 15.2 27.2 15.2ZM6.8 9.2V7.2C6.8 6.97909 6.97909 6.8 7.2 6.8H26.4C26.6209 6.8 26.8 6.97909 26.8 7.2V9.2H6.8Z" fill="black"/>
<path d="M7.99961 8.4001C8.22052 8.4001 8.39961 8.22101 8.39961 8.0001C8.39961 7.77918 8.22052 7.6001 7.99961 7.6001C7.7787 7.6001 7.59961 7.77918 7.59961 8.0001C7.59961 8.22101 7.7787 8.4001 7.99961 8.4001Z" fill="black"/>
<path d="M9.59922 8.4001C9.82013 8.4001 9.99922 8.22101 9.99922 8.0001C9.99922 7.77918 9.82013 7.6001 9.59922 7.6001C9.37831 7.6001 9.19922 7.77918 9.19922 8.0001C9.19922 8.22101 9.37831 8.4001 9.59922 8.4001Z" fill="black"/>
<path d="M11.2008 8.4001C11.4217 8.4001 11.6008 8.22101 11.6008 8.0001C11.6008 7.77918 11.4217 7.6001 11.2008 7.6001C10.9799 7.6001 10.8008 7.77918 10.8008 8.0001C10.8008 8.22101 10.9799 8.4001 11.2008 8.4001Z" fill="black"/>
<path d="M18.3992 7.6001H15.5992C15.3783 7.6001 15.1992 7.77918 15.1992 8.0001C15.1992 8.22101 15.3783 8.4001 15.5992 8.4001H18.3992C18.6201 8.4001 18.7992 8.22101 18.7992 8.0001C18.7992 7.77918 18.6201 7.6001 18.3992 7.6001Z" fill="black"/>
<path d="M7.99961 12H8.79961C9.02053 12 9.19961 11.8209 9.19961 11.6C9.19961 11.379 9.02053 11.2 8.79961 11.2H7.99961C7.7787 11.2 7.59961 11.379 7.59961 11.6C7.59961 11.8209 7.7787 12 7.99961 12Z" fill="black"/>
<path d="M14 11.2H10.4C10.1791 11.2 10 11.379 10 11.6C10 11.8209 10.1791 12 10.4 12H14C14.2209 12 14.4 11.8209 14.4 11.6C14.4 11.379 14.2209 11.2 14 11.2Z" fill="black"/>
<path d="M19.1992 11.6C19.1992 11.379 19.0201 11.2 18.7992 11.2H15.5992C15.3783 11.2 15.1992 11.379 15.1992 11.6C15.1992 11.8209 15.3783 12 15.5992 12H18.7992C19.0201 12 19.1992 11.8209 19.1992 11.6Z" fill="black"/>
<path d="M13.6004 13.6C13.8213 13.6 14.0004 13.421 14.0004 13.2C14.0004 12.9791 13.8213 12.8 13.6004 12.8H12.8004C12.5795 12.8 12.4004 12.9791 12.4004 13.2C12.4004 13.421 12.5795 13.6 12.8004 13.6H13.6004Z" fill="black"/>
<path d="M15.2008 12.8C14.9799 12.8 14.8008 12.9791 14.8008 13.2C14.8008 13.421 14.9799 13.6 15.2008 13.6H16.0008C16.2217 13.6 16.4008 13.421 16.4008 13.2C16.4008 12.9791 16.2217 12.8 16.0008 12.8H15.2008Z" fill="black"/>
<path d="M7.99961 13.6H11.1996C11.4205 13.6 11.5996 13.421 11.5996 13.2C11.5996 12.9791 11.4205 12.8 11.1996 12.8H7.99961C7.7787 12.8 7.59961 12.9791 7.59961 13.2C7.59961 13.421 7.7787 13.6 7.99961 13.6Z" fill="black"/>
<path d="M7.59961 17.6001C7.59961 18.0419 7.95778 18.4001 8.39961 18.4001H13.5996C14.0414 18.4001 14.3996 18.0419 14.3996 17.6001V16.4001C14.3996 15.9583 14.0414 15.6001 13.5996 15.6001H8.39961C7.95778 15.6001 7.59961 15.9583 7.59961 16.4001V17.6001ZM8.39961 16.4001H13.5996V17.6001H8.39961V16.4001Z" fill="black"/>
<path d="M23.5855 19.1499L25.0031 17.7003C25.1855 17.5136 25.2473 17.2402 25.1631 16.9931C25.0834 16.7498 24.8738 16.5718 24.6207 16.5327L22.6807 16.2371L21.8127 14.3923C21.7024 14.153 21.463 13.9998 21.1995 13.9998C20.936 13.9998 20.6966 14.153 20.5863 14.3923L19.7207 16.2371L17.7811 16.5327C17.528 16.5716 17.3182 16.7494 17.2383 16.9927C17.154 17.2398 17.2158 17.5132 17.3983 17.6999L18.8159 19.1499L18.4807 21.1971C18.4355 21.4593 18.5455 21.7241 18.7631 21.8771C18.9731 22.0268 19.2504 22.0423 19.4759 21.9171L21.2007 20.9643L22.9255 21.9159C23.1508 22.041 23.428 22.0254 23.6379 21.8759C23.8555 21.7229 23.9655 21.4581 23.9203 21.1959L23.5855 19.1499ZM22.7879 19.2299L23.0927 21.0963L21.5255 20.2315C21.3234 20.1195 21.0779 20.1195 20.8759 20.2315L19.3087 21.0943L19.6135 19.2279C19.6498 19.0095 19.5802 18.7868 19.4259 18.6279L18.1167 17.2907L19.9047 17.0179C20.1292 16.9833 20.3215 16.839 20.4175 16.6331L21.2007 14.9679L21.9839 16.6331C22.0798 16.8389 22.272 16.9832 22.4963 17.0179L24.2847 17.2907L22.9755 18.6299C22.8217 18.7882 22.7521 19.0101 22.7879 19.2279V19.2299Z" fill="black"/>
<path d="M29.7748 26.8401C26.1996 25.1161 26.168 22.2437 26.1932 21.7225C27.862 19.2184 27.4179 15.8656 25.1547 13.8824C22.8915 11.8992 19.5093 11.8992 17.2461 13.8824C14.9829 15.8656 14.5388 19.2184 16.2076 21.7225C16.2276 22.2301 16.1776 25.1293 12.6268 26.8425C12.485 26.9108 12.3965 27.0558 12.4005 27.2131C12.4046 27.3704 12.5005 27.5108 12.6456 27.5717C12.7176 27.6017 14.152 28.1945 15.384 27.8517C15.4356 28.6181 15.7652 29.3394 16.3108 29.8801L16.318 29.8877C16.4357 30.0053 16.614 30.0378 16.7656 29.9693C16.9173 29.9007 17.0106 29.7454 17 29.5793C17.1564 28.9148 17.5013 28.3097 17.9932 27.8365C18.1684 27.6865 18.3508 27.5457 18.5336 27.4049C19.0373 27.0532 19.4851 26.6275 19.8616 26.1421C20.2326 25.6086 20.499 25.0096 20.6468 24.3769C20.8292 24.3937 21.0136 24.4049 21.2008 24.4049C21.388 24.4049 21.5724 24.3937 21.7548 24.3769C21.9025 25.0089 22.1685 25.6073 22.5388 26.1405C22.916 26.6248 23.3641 27.0495 23.868 27.4001C24.0508 27.5409 24.2332 27.6801 24.4076 27.8309C24.8995 28.3044 25.2444 28.9098 25.4008 29.5745C25.39 29.7408 25.4835 29.8965 25.6355 29.965C25.7875 30.0336 25.966 30.0007 26.0836 29.8825L26.09 29.8753C26.6355 29.3346 26.9651 28.6135 27.0168 27.8473C28.2492 28.1917 29.6836 27.5993 29.7552 27.5673C29.9003 27.5064 29.9962 27.366 30.0003 27.2087C30.0043 27.0514 29.9158 26.9064 29.774 26.8381L29.7748 26.8401ZM19.2108 25.6721C18.8784 26.0927 18.4855 26.4616 18.0448 26.7669C17.8516 26.9157 17.6584 27.0653 17.4716 27.2253C17.0193 27.6349 16.6667 28.1427 16.4408 28.7097C16.1983 28.2898 16.1202 27.795 16.2216 27.3209C16.2731 27.1575 16.2148 26.9794 16.0767 26.8781C15.9385 26.7767 15.7512 26.7746 15.6108 26.8729C15.0708 27.1705 14.4363 27.2468 13.8412 27.0857C16.1244 25.6689 16.7732 23.7909 16.948 22.6277C17.7457 23.4298 18.7542 23.9898 19.8568 24.2429C19.7306 24.7547 19.5116 25.2391 19.2108 25.6721ZM16.0008 18.4001C16.0008 15.5282 18.3289 13.2001 21.2008 13.2001C24.0727 13.2001 26.4008 15.5282 26.4008 18.4001C26.4008 21.2719 24.0727 23.6001 21.2008 23.6001C18.3303 23.5968 16.0041 21.2706 16.0008 18.4001ZM25.5108 29.3249L25.5068 29.3289L25.5112 29.3241L25.5108 29.3249ZM26.7908 26.8729C26.6504 26.7743 26.4628 26.7762 26.3245 26.8776C26.1862 26.979 26.1279 27.1573 26.1796 27.3209C26.2826 27.7952 26.2043 28.291 25.96 28.7105C25.7342 28.1429 25.3814 27.6346 24.9288 27.2245C24.7432 27.0645 24.55 26.9157 24.3568 26.7669C23.9157 26.4613 23.5225 26.092 23.19 25.6709C22.8893 25.2383 22.6705 24.7543 22.5444 24.2429C23.6471 23.9897 24.6557 23.4298 25.4536 22.6277C25.628 23.7909 26.2768 25.6677 28.56 27.0857C27.965 27.2467 27.3307 27.1704 26.7908 26.8729Z" fill="black"/>
</g>
<defs>
<clipPath id="clip0">
<rect width="24" height="24" fill="white" transform="translate(6 6)"/>
</clipPath>
</defs>
</svg>
