<svg width="36" height="36" viewBox="0 0 36 36" fill="none" xmlns="http://www.w3.org/2000/svg">
<path d="M7.08947 16.4879H9.10273C9.22181 16.9173 9.39333 17.3303 9.61391 17.7175L8.18895 19.1419C8.1209 19.2099 8.08263 19.3022 8.08263 19.3986C8.08263 19.495 8.1209 19.5873 8.18895 19.6553L9.72845 21.1953C9.87021 21.3367 10.0999 21.3367 10.2416 21.1953L11.6667 19.77C12.0539 19.9905 12.4665 20.1621 12.8959 20.2811V22.2943C12.8959 22.4948 13.0584 22.6572 13.2588 22.6572H15.4362C15.6367 22.6572 15.7991 22.4948 15.7991 22.2943V20.2811C16.2285 20.1621 16.6412 19.9905 17.0283 19.77L18.4534 21.1953C18.5975 21.3314 18.8227 21.3314 18.9666 21.1953L20.5064 19.6553C20.5744 19.5873 20.6127 19.495 20.6127 19.3986C20.6127 19.3022 20.5744 19.2099 20.5064 19.1419L19.0811 17.7175C19.3017 17.3303 19.4733 16.9173 19.5923 16.4879H21.6056C21.806 16.4879 21.9685 16.3254 21.9685 16.125V13.9475C21.9685 13.7472 21.806 13.5846 21.6056 13.5846H19.5923C19.4733 13.1554 19.3017 12.7423 19.0811 12.3552L20.5061 10.9308C20.5742 10.8627 20.6124 10.7704 20.6124 10.674C20.6124 10.5776 20.5742 10.4854 20.5061 10.4173L18.9666 8.87739C18.8248 8.73577 18.5952 8.73577 18.4534 8.87739L17.0283 10.3026C16.6412 10.0823 16.2284 9.91067 15.7991 9.79159V7.77819C15.7991 7.57788 15.6367 7.41528 15.4362 7.41528H13.2588C13.0584 7.41528 12.8959 7.57788 12.8959 7.77819V9.79159C12.4667 9.91067 12.0539 10.0823 11.6667 10.3026L10.2416 8.87739C10.0976 8.7413 9.87234 8.7413 9.72845 8.87739L8.18867 10.4173C8.12062 10.4854 8.08235 10.5776 8.08235 10.674C8.08235 10.7704 8.12062 10.8627 8.18867 10.9308L9.61391 12.3552C9.39333 12.7423 9.22181 13.1554 9.10273 13.5846H7.08947C6.88902 13.5846 6.72656 13.7472 6.72656 13.9475V16.125C6.72656 16.3254 6.88902 16.4879 7.08947 16.4879ZM7.45237 14.3104H9.38667C9.55721 14.3104 9.70478 14.1918 9.74121 14.0252C9.86029 13.4817 10.0756 12.9637 10.377 12.4959C10.469 12.3525 10.4486 12.1641 10.328 12.0434L8.95842 10.6739L9.98504 9.64714L11.3543 11.0167C11.4749 11.1376 11.6635 11.158 11.8072 11.0659C12.2752 10.7646 12.793 10.5493 13.3365 10.4301C13.5029 10.3935 13.6217 10.2459 13.6217 10.0754V8.14109H15.0733V10.0754C15.0733 10.2459 15.1921 10.3935 15.3586 10.4301C15.9021 10.5493 16.4199 10.7646 16.8879 11.0659C17.0316 11.158 17.2201 11.1376 17.3408 11.0167L18.71 9.64714L19.7364 10.6739L18.3671 12.043C18.2462 12.1638 18.2259 12.3523 18.3181 12.4959C18.6194 12.964 18.8345 13.4819 18.9534 14.0255C18.99 14.1921 19.1376 14.3109 19.308 14.3109H21.2427V15.7625H19.308C19.1376 15.7625 18.99 15.8811 18.9534 16.0477C18.8345 16.5912 18.6193 17.1091 18.3181 17.5766C18.2261 17.7202 18.2465 17.9086 18.3671 18.0292L19.7366 19.3985L18.71 20.4255L17.3408 19.0558C17.2201 18.9351 17.0316 18.9146 16.8879 19.0068C16.4202 19.3082 15.9025 19.5235 15.359 19.6426C15.1923 19.6789 15.0733 19.8266 15.0733 19.9971V21.9314H13.6217V19.9971C13.6217 19.8266 13.5028 19.6789 13.3361 19.6426C12.7926 19.5235 12.2749 19.3082 11.8072 19.0068C11.6635 18.9146 11.4749 18.9351 11.3543 19.0558L9.98504 20.4255L8.9587 19.3987L10.328 18.0295C10.4489 17.9089 10.4691 17.7203 10.377 17.5766C10.0756 17.1086 9.86029 16.5906 9.74121 16.047C9.70464 15.8804 9.55721 15.7621 9.38667 15.7621H7.45237V14.3104Z" fill="black"/>
<path d="M14.3466 17.9395C15.95 17.9395 17.2498 16.6399 17.2498 15.0363C17.2498 13.4328 15.95 12.1331 14.3466 12.1331C12.7431 12.1331 11.4434 13.4328 11.4434 15.0363C11.4451 16.6389 12.744 17.9378 14.3466 17.9395ZM14.3466 12.8589C15.549 12.8589 16.524 13.8339 16.524 15.0363C16.524 16.2388 15.549 17.2137 14.3466 17.2137C13.1442 17.2137 12.1692 16.2388 12.1692 15.0363C12.1704 13.8342 13.1445 12.8601 14.3466 12.8589Z" fill="black"/>
<path d="M14.3474 19.0281C16.552 19.0281 18.3393 17.2409 18.3393 15.0361C18.3393 12.8315 16.552 11.0442 14.3474 11.0442C12.1428 11.0442 10.3555 12.8315 10.3555 15.0361C10.3582 17.2398 12.1438 19.0255 14.3474 19.0281ZM14.3474 11.77C16.1513 11.77 17.6135 13.2322 17.6135 15.0361C17.6135 16.84 16.1513 18.3023 14.3474 18.3023C12.5435 18.3023 11.0813 16.84 11.0813 15.0361C11.0833 13.2332 12.5444 11.772 14.3474 11.77Z" fill="black"/>
<path d="M27.412 24.1089V21.2057C27.412 21.0054 27.2496 20.8428 27.0491 20.8428H26.3233V17.9396C26.3233 17.7393 26.1609 17.5767 25.9604 17.5767H22.6943C22.4939 17.5767 22.3314 17.7393 22.3314 17.9396V20.8428H20.5169C20.3164 20.8428 20.154 21.0054 20.154 21.2057V24.1089H8.54108C7.53941 24.1102 6.72784 24.9218 6.72656 25.9234V26.6492C6.72784 27.6511 7.53941 28.4626 8.54108 28.4638H27.412C28.4137 28.4626 29.2253 27.6511 29.2266 26.6492V25.9234C29.2253 24.9218 28.4137 24.1102 27.412 24.1089ZM26.6862 24.1089H24.1459V21.5686H26.6862V24.1089ZM23.0572 18.3025H25.5975V20.8428H23.0572V18.3025ZM20.8798 21.5686H23.4201V24.1089H20.8798V21.5686ZM28.5008 26.6492C28.5008 27.2506 28.0132 27.7379 27.412 27.7379H8.54108C7.93988 27.7379 7.45237 27.2506 7.45237 26.6492V25.9234C7.45237 25.3222 7.93988 24.8347 8.54108 24.8347H27.412C28.0132 24.8347 28.5008 25.3222 28.5008 25.9234V26.6492Z" fill="black"/>
<path d="M17.9754 25.1975C17.3742 25.1975 16.8867 25.685 16.8867 26.2862C16.8867 26.8876 17.3742 27.3749 17.9754 27.3749C18.5766 27.3749 19.0641 26.8876 19.0641 26.2862C19.0641 25.685 18.5766 25.1975 17.9754 25.1975ZM17.9754 26.6491C17.775 26.6491 17.6125 26.4867 17.6125 26.2862C17.6125 26.0859 17.775 25.9233 17.9754 25.9233C18.1759 25.9233 18.3383 26.0859 18.3383 26.2862C18.3383 26.4867 18.1759 26.6491 17.9754 26.6491Z" fill="black"/>
<path d="M14.3465 25.1975C13.7453 25.1975 13.2578 25.685 13.2578 26.2862C13.2578 26.8876 13.7453 27.3749 14.3465 27.3749C14.9477 27.3749 15.4352 26.8876 15.4352 26.2862C15.4352 25.685 14.9477 25.1975 14.3465 25.1975ZM14.3465 26.6491C14.1461 26.6491 13.9836 26.4867 13.9836 26.2862C13.9836 26.0859 14.1461 25.9233 14.3465 25.9233C14.547 25.9233 14.7094 26.0859 14.7094 26.2862C14.7094 26.4867 14.547 26.6491 14.3465 26.6491Z" fill="black"/>
<path d="M21.6043 25.1975C21.0031 25.1975 20.5156 25.685 20.5156 26.2862C20.5156 26.8876 21.0031 27.3749 21.6043 27.3749C22.2056 27.3749 22.6931 26.8876 22.6931 26.2862C22.6931 25.685 22.2056 25.1975 21.6043 25.1975ZM21.6043 26.6491C21.4039 26.6491 21.2414 26.4867 21.2414 26.2862C21.2414 26.0859 21.4039 25.9233 21.6043 25.9233C21.8048 25.9233 21.9673 26.0859 21.9673 26.2862C21.9673 26.4867 21.8048 26.6491 21.6043 26.6491Z" fill="black"/>
<path d="M10.7176 25.1975C10.1164 25.1975 9.62891 25.685 9.62891 26.2862C9.62891 26.8876 10.1164 27.3749 10.7176 27.3749C11.3188 27.3749 11.8063 26.8876 11.8063 26.2862C11.8063 25.685 11.3188 25.1975 10.7176 25.1975ZM10.7176 26.6491C10.5172 26.6491 10.3547 26.4867 10.3547 26.2862C10.3547 26.0859 10.5172 25.9233 10.7176 25.9233C10.9181 25.9233 11.0805 26.0859 11.0805 26.2862C11.0805 26.4867 10.9181 26.6491 10.7176 26.6491Z" fill="black"/>
<path d="M25.2332 25.1975C24.632 25.1975 24.1445 25.685 24.1445 26.2862C24.1445 26.8876 24.632 27.3749 25.2332 27.3749C25.8344 27.3749 26.3219 26.8876 26.3219 26.2862C26.3219 25.685 25.8344 25.1975 25.2332 25.1975ZM25.2332 26.6491C25.0328 26.6491 24.8703 26.4867 24.8703 26.2862C24.8703 26.0859 25.0328 25.9233 25.2332 25.9233C25.4337 25.9233 25.5961 26.0859 25.5961 26.2862C25.5961 26.4867 25.4337 26.6491 25.2332 26.6491Z" fill="black"/>
</svg>
