<svg width="34" height="34" viewBox="0 0 34 34" fill="none" xmlns="http://www.w3.org/2000/svg">
<path d="M17.375 28.625H28.625V19.625H17.375V28.625ZM21.875 20.375H24.125V21.125H21.875V20.375ZM18.125 20.375H21.125V21.875H24.875V20.375H27.875V27.875H18.125V20.375Z" fill="black"/>
<path d="M26.375 26.375H27.125V27.125H26.375V26.375Z" fill="black"/>
<path d="M24.875 26.375H25.625V27.125H24.875V26.375Z" fill="black"/>
<path d="M23.375 26.375H24.125V27.125H23.375V26.375Z" fill="black"/>
<path d="M27.875 12.875H27.125V5.375H17.375V12.875H16.625V5.375H6.875V12.875H6.125C5.71137 12.875 5.375 13.2114 5.375 13.625V14.375C5.375 14.7886 5.71137 15.125 6.125 15.125H8.09862C8.03637 15.3654 8 15.6155 8 15.875C8 16.9175 8.53513 17.8366 9.34438 18.3744C7.04825 19.0831 5.375 21.2244 5.375 23.75C5.375 24.5169 5.83887 25.1758 6.5 25.466V28.625H16.625V23.75C16.625 21.2244 14.9518 19.0831 12.6556 18.3744C13.4649 17.8366 14 16.9175 14 15.875C14 15.6155 13.9636 15.3654 13.9014 15.125H27.875C28.2886 15.125 28.625 14.7886 28.625 14.375V13.625C28.625 13.2114 28.2886 12.875 27.875 12.875ZM21.125 6.125H23.375V6.875H21.125V6.125ZM18.125 6.125H20.375V7.625H24.125V6.125H26.375V12.875H24.125V11.375H20.375V12.875H18.125V6.125ZM23.375 12.875H21.125V12.125H23.375V12.875ZM10.625 6.125H12.875V6.875H10.625V6.125ZM7.625 6.125H9.875V7.625H13.625V6.125H15.875V12.875H13.625V11.375H9.875V12.875H7.625V6.125ZM10.625 12.875V12.125H12.875V12.875H10.625ZM6.125 14.375V13.625H9.02225C8.7785 13.8395 8.57 14.0926 8.40575 14.375H6.125ZM7.25 25.625H8.75V27.875H7.25V25.625ZM10.8125 23H9.5V21.125H12.125V23H14V27.875H9.5V25.625H10.8125C11.5363 25.625 12.125 25.0362 12.125 24.3125C12.125 23.5888 11.5363 23 10.8125 23ZM12.875 21.6553L13.4698 22.25H12.875V21.6553ZM15.875 23.75V27.875H14.75V22.4697L12.6552 20.375H8.75V23H7.625V23.75H10.8125C11.1226 23.75 11.375 24.0024 11.375 24.3125C11.375 24.6226 11.1226 24.875 10.8125 24.875H7.25C6.62975 24.875 6.125 24.3703 6.125 23.75C6.125 21.062 8.312 18.875 11 18.875C13.688 18.875 15.875 21.062 15.875 23.75ZM11 18.125C9.75912 18.125 8.75 17.1159 8.75 15.875C8.75 14.6341 9.75912 13.625 11 13.625C12.2409 13.625 13.25 14.6341 13.25 15.875C13.25 17.1159 12.2409 18.125 11 18.125ZM27.875 14.375H13.5942C13.4304 14.0926 13.2215 13.8395 12.9777 13.625H27.875V14.375Z" fill="black"/>
<path d="M23.375 24.875H27.125V25.625H23.375V24.875Z" fill="black"/>
</svg>
