<svg width="556" height="542" viewBox="0 0 556 542" fill="none" xmlns="http://www.w3.org/2000/svg">
<rect width="556" height="542" rx="10" fill="white"/>
<path d="M504.975 218.705C451.324 126.318 305.812 159.222 276.089 114.281C260.87 91.2716 243.844 64.5994 219.15 50.7293C195.607 37.5066 168.311 32.7884 144.512 34.5404C59.5344 40.7948 23.5024 117.251 39.8328 201.21C61.6169 313.208 160.35 427.612 277.644 428.414C338.989 428.831 397.556 406.782 443.499 375.608C443.843 375.376 444.187 375.142 444.528 374.908C490.424 343.492 545.936 289.241 504.975 218.705Z" fill="#204173"/>
<g opacity="0.699997">
<g opacity="0.699997">
<path opacity="0.699997" d="M504.975 218.705C451.324 126.318 305.812 159.222 276.089 114.281C260.87 91.2716 243.844 64.5994 219.15 50.7293C195.607 37.5066 168.311 32.7884 144.512 34.5404C59.5344 40.7948 23.5024 117.251 39.8328 201.21C61.6169 313.208 160.35 427.612 277.644 428.414C338.989 428.831 397.556 406.782 443.499 375.608C443.843 375.376 444.187 375.142 444.528 374.908C490.424 343.492 545.936 289.241 504.975 218.705Z" fill="white"/>
</g>
</g>
<path d="M88.5297 225.427H82.5653C69.2331 225.427 58.4258 236.295 58.4258 249.701V382.893C58.4258 396.298 69.2331 407.167 82.5653 407.167H164.41C177.742 407.167 188.549 396.298 188.549 382.893" stroke="#1A2E35" stroke-width="1.47067" stroke-miterlimit="10" stroke-linecap="round" stroke-linejoin="round" stroke-dasharray="5.88 5.88"/>
<path d="M181.838 99.752V73.4428C181.838 65.2327 188.457 58.5765 196.622 58.5765H303.056C311.221 58.5765 317.84 65.2327 317.84 73.4428" stroke="#1A2E35" stroke-width="1.47067" stroke-miterlimit="10" stroke-linecap="round" stroke-linejoin="round" stroke-dasharray="5.88 5.88"/>
<path d="M488.597 479.11C488.597 495.469 394.219 508.732 277.799 508.732C161.378 508.732 67 495.469 67 479.11C67 462.751 161.378 449.488 277.799 449.488C394.219 449.488 488.597 462.751 488.597 479.11Z" fill="#204173"/>
<path d="M476.423 134.184V333.47C476.423 347.034 465.484 358.035 451.995 358.035H103.429C89.9393 358.035 79 347.034 79 333.47V134.184C79 133.597 79.0242 133.024 79.0726 132.451C79.9476 119.692 90.5227 109.607 103.429 109.607H451.995C464.9 109.607 475.476 119.692 476.35 132.451C476.399 133.024 476.423 133.597 476.423 134.184Z" fill="white"/>
<path d="M476.423 134.184V333.47C476.423 347.034 465.484 358.035 451.995 358.035H103.429C89.9393 358.035 79 347.034 79 333.47V134.184C79 133.597 79.0242 133.024 79.0726 132.451C79.9476 119.692 90.5227 109.607 103.429 109.607H451.995C464.9 109.607 475.476 119.692 476.35 132.451C476.399 133.024 476.423 133.597 476.423 134.184Z" stroke="#1A2E35" stroke-width="1.47067" stroke-miterlimit="10" stroke-linecap="round" stroke-linejoin="round"/>
<path d="M443.001 348.897H113.895C101.25 348.897 91 338.59 91 325.876V141.785H465.895V325.876C465.895 338.59 455.645 348.897 443.001 348.897Z" fill="#4C5B60"/>
<path d="M476.277 132.449H79C79.8739 119.69 90.449 109.606 103.355 109.606H451.921C464.828 109.606 475.403 119.69 476.277 132.449Z" fill="#204173"/>
<path d="M476.35 132.45H79.0732C79.9472 119.691 90.5222 109.607 103.428 109.607H451.995C464.901 109.607 475.476 119.691 476.35 132.45Z" stroke="#1A2E35" stroke-width="1.47067" stroke-miterlimit="10"/>
<path d="M127.893 121.029C127.893 123.431 125.956 125.38 123.566 125.38C121.175 125.38 119.238 123.431 119.238 121.029C119.238 118.626 121.175 116.678 123.566 116.678C125.956 116.678 127.893 118.626 127.893 121.029Z" fill="white"/>
<path d="M147.653 120.996C147.653 123.399 145.716 125.348 143.327 125.348C140.936 125.348 139 123.399 139 120.996C139 118.593 140.936 116.646 143.327 116.646C145.716 116.646 147.653 118.593 147.653 120.996Z" fill="white"/>
<path d="M164.483 121.029C164.483 123.431 162.545 125.38 160.156 125.38C157.765 125.38 155.828 123.431 155.828 121.029C155.828 118.626 157.765 116.678 160.156 116.678C162.545 116.678 164.483 118.626 164.483 121.029Z" fill="white"/>
<path d="M453.94 202.184C447.7 202.184 442.648 197.105 442.648 190.83C442.648 184.568 447.7 179.476 453.94 179.476C460.181 179.476 465.233 184.568 465.233 190.83C465.233 197.105 460.181 202.184 453.94 202.184ZM465.426 170.135C463.823 169.233 462.112 168.524 460.338 168.024L458.286 158.782H449.545L447.505 168.024C445.72 168.513 444.009 169.233 442.406 170.135L434.515 165.058L428.334 171.272L433.3 179.208C432.389 180.831 431.685 182.552 431.199 184.335L422.008 186.386V195.176L431.199 197.24C431.685 199.047 432.389 200.78 433.3 202.405L428.25 210.389L434.429 216.603L442.37 211.524C443.972 212.44 445.684 213.148 447.469 213.648L449.51 222.879H458.251L460.302 213.648C462.076 213.148 463.786 212.428 465.389 211.524L465.791 211.78V169.904L465.426 170.135Z" fill="#1A2E35"/>
<path d="M240.784 193.714C227.635 193.714 216.975 182.995 216.975 169.773C216.975 156.55 227.635 145.831 240.784 145.831C253.933 145.831 264.594 156.55 264.594 169.773C264.594 182.995 253.933 193.714 240.784 193.714ZM307.926 179.04V160.507L288.548 156.185C287.493 152.424 286.011 148.786 284.117 145.367L286.46 141.656H195L197.258 145.27C195.352 148.676 193.87 152.302 192.838 156.074L173.461 160.409V178.941L192.838 183.289C193.87 187.085 195.352 190.748 197.258 194.178L186.609 211.014L199.649 224.114L216.38 213.407C219.78 215.324 223.385 216.826 227.137 217.889L231.436 237.349H249.866L254.2 217.889C257.94 216.826 261.534 215.312 264.922 213.407L281.665 224.114L294.692 211.014L284.117 194.178C285.998 190.76 287.493 187.146 288.548 183.386L307.926 179.04Z" fill="#1A2E35"/>
<path d="M146.853 283.335C139.859 275.521 127.889 274.886 120.117 281.92C112.346 288.951 111.716 300.989 118.709 308.803C125.703 316.616 137.673 317.239 145.444 310.207C153.215 303.175 153.846 291.149 146.853 283.335ZM185.681 306.3L186.458 291.601L171.305 287.303C170.602 284.287 169.557 281.345 168.198 278.562L177.352 265.632L167.542 254.681L153.822 262.482C151.199 260.835 148.407 259.479 145.468 258.466L142.845 242.838L128.228 242.057L124.002 257.343C120.991 258.014 118.077 259.064 115.309 260.444L102.464 251.239L91.5605 261.103L99.3311 274.912C97.656 277.537 96.3198 280.345 95.3248 283.299L90.8936 284.031V303.943L94.1108 304.86C94.791 307.899 95.8344 310.842 97.219 313.626L90.8936 322.526L91.3184 330.156V330.206L91.3305 330.217L97.8508 337.494L111.595 329.693C114.216 331.389 117.034 332.756 119.972 333.759L122.473 348.762V348.776L122.595 349.398L137.212 350.18L137.601 348.776V348.762L141.438 334.893C144.473 334.21 147.387 333.172 150.179 331.792L163.001 340.986L173.904 331.134L166.157 317.312C167.809 314.688 169.144 311.88 170.115 308.937L185.681 306.3Z" fill="#1A2E35"/>
<path d="M277.04 290.639C269.433 292.721 261.595 288.205 259.531 280.57C257.461 272.92 261.953 265.038 269.544 262.964C277.152 260.882 284.989 265.398 287.053 273.032C289.123 280.682 284.633 288.563 277.04 290.639ZM302.216 284.125C302.783 281.851 303.077 279.511 303.103 277.164L313.612 271.608L310.707 260.885L298.845 261.443C297.646 259.432 296.21 257.567 294.584 255.905L298.098 244.494L288.519 238.975L280.505 247.769C278.25 247.213 275.935 246.922 273.604 246.884L268.056 236.308L257.409 239.221L257.97 251.165C255.971 252.373 254.117 253.816 252.452 255.448L241.1 251.925L235.605 261.542L244.396 269.579C243.828 271.853 243.539 274.181 243.529 276.522L233 282.097L235.904 292.819L247.782 292.253C248.966 294.271 250.39 296.133 252.028 297.8L248.496 309.152L258.076 314.67L266.048 305.952C268.311 306.524 270.626 306.814 272.965 306.829L278.498 317.412L289.145 314.5L288.678 304.296L288.598 302.549C290.62 301.35 292.487 299.91 294.171 298.261L305.515 301.807L310.202 293.567L311.003 292.174L302.216 284.125Z" fill="#1A2E35"/>
<path d="M383.395 302.533C374.788 308.723 362.817 306.732 356.661 298.077C350.493 289.432 352.484 277.395 361.081 271.205C369.688 265.002 381.66 267.005 387.816 275.649C393.983 284.305 391.993 296.343 383.395 302.533ZM424.445 303.193L426.874 288.48L412.062 282.486C411.721 279.348 411.005 276.271 409.936 273.305L420.597 261.364L411.964 249.229L397.261 255.504C394.821 253.538 392.162 251.878 389.321 250.547L388.459 234.505L373.816 232.075L367.819 246.909C364.71 247.275 361.663 247.996 358.724 249.058L346.814 238.339L334.758 247.02L341.01 261.792C339.287 263.964 337.792 266.284 336.554 268.751C336.384 269.092 336.215 269.435 336.056 269.776L320.116 270.668L317.687 285.367L320.09 286.343L332.499 291.374C332.839 294.487 333.544 297.564 334.623 300.519L323.964 312.495L332.597 324.619L347.3 318.319C349.728 320.309 352.399 321.982 355.228 323.312L356.053 339.282L370.684 341.711L376.669 326.987C379.79 326.645 382.849 325.925 385.788 324.838L397.674 335.571L409.742 326.878L403.49 312.092C405.48 309.639 407.169 306.939 408.503 304.072L424.445 303.193Z" fill="#1A2E35"/>
<path d="M224.532 384.354H109.43C101.46 384.354 95 377.858 95 369.845V209.589C95 201.575 101.46 195.08 109.43 195.08H224.532C232.501 195.08 238.962 201.575 238.962 209.589V369.845C238.962 377.858 232.501 384.354 224.532 384.354Z" fill="#204173"/>
<path d="M224.532 384.354H109.43C101.46 384.354 95 377.858 95 369.845V209.589C95 201.575 101.46 195.08 109.43 195.08H224.532C232.501 195.08 238.962 201.575 238.962 209.589V369.845C238.962 377.858 232.501 384.354 224.532 384.354Z" stroke="#1A2E35" stroke-width="1.47067" stroke-miterlimit="10"/>
<path d="M252.363 224.386V384.64C252.363 392.661 245.903 399.156 237.927 399.156H122.827C114.862 399.156 108.403 392.661 108.403 384.64V224.386C108.403 216.377 114.862 209.881 122.827 209.881H237.927C245.903 209.881 252.363 216.377 252.363 224.386Z" fill="white"/>
<path d="M252.363 224.386V384.64C252.363 392.661 245.903 399.156 237.927 399.156H122.827C114.862 399.156 108.403 392.661 108.403 384.64V224.386C108.403 216.377 114.862 209.881 122.827 209.881H237.927C245.903 209.881 252.363 216.377 252.363 224.386Z" stroke="#1A2E35" stroke-width="1.47067" stroke-miterlimit="10" stroke-linecap="round" stroke-linejoin="round"/>
<path d="M251.96 224.668V233.25H108V224.668C108 216.659 114.459 210.163 122.424 210.163H237.523C245.5 210.163 251.96 216.659 251.96 224.668Z" fill="#204173"/>
<path d="M252.363 224.386V232.968H108.403V224.386C108.403 216.377 114.862 209.882 122.827 209.882H237.927C245.903 209.882 252.363 216.377 252.363 224.386Z" stroke="#1A2E35" stroke-width="1.47067" stroke-miterlimit="10"/>
<path d="M157.358 248.883H121.941V242.91H157.358V248.883Z" fill="#204173"/>
<path d="M157.417 302.615H122V296.642H157.417V302.615Z" fill="#204173"/>
<path d="M157.417 350.883H122V344.91H157.417V350.883Z" fill="#204173"/>
<path d="M222.531 262.08H121.94V257.698H222.531V262.08Z" fill="#1A2E35"/>
<path d="M204.394 270.355H121.94V266.086H204.394V270.355Z" fill="#1A2E35"/>
<path d="M215.191 278.598H121.94V274.329H215.191V278.598Z" fill="#1A2E35"/>
<path d="M215.191 286.835H121.94V282.566H215.191V286.835Z" fill="#1A2E35"/>
<path d="M222.531 310.644H121.94V306.263H222.531V310.644Z" fill="#1A2E35"/>
<path d="M204.394 318.92H121.94V314.651H204.394V318.92Z" fill="#1A2E35"/>
<path d="M215.191 327.164H121.94V322.895H215.191V327.164Z" fill="#1A2E35"/>
<path d="M222.531 363.977H121.94V359.595H222.531V363.977Z" fill="#1A2E35"/>
<path d="M204.394 372.25H121.94V367.981H204.394V372.25Z" fill="#1A2E35"/>
<path d="M215.191 380.495H121.94V376.225H215.191V380.495Z" fill="#1A2E35"/>
<path d="M414.602 98.7629V163.532C414.602 173.091 406.905 180.832 397.398 180.832H249.043C239.549 180.832 231.839 173.091 231.839 163.532V98.7629C231.839 89.2037 239.549 81.4507 249.043 81.4507H397.398C406.905 81.4507 414.602 89.2037 414.602 98.7629Z" fill="white"/>
<path d="M414.602 98.7629V163.532C414.602 173.091 406.905 180.832 397.398 180.832H249.043C239.549 180.832 231.839 173.091 231.839 163.532V98.7629C231.839 89.2037 239.549 81.4507 249.043 81.4507H397.398C406.905 81.4507 414.602 89.2037 414.602 98.7629Z" stroke="#1C1C1B" stroke-width="1.47067" stroke-miterlimit="10"/>
<path d="M414.763 98.7627V100.24H232V98.7627C232 89.2035 239.71 81.4505 249.204 81.4505H397.559C407.066 81.4505 414.763 89.2035 414.763 98.7627Z" fill="#204173"/>
<path d="M414.602 98.7632V100.241H231.839V98.7632C231.839 89.2039 239.549 81.451 249.043 81.451H397.398C406.905 81.451 414.602 89.2039 414.602 98.7632Z" stroke="#1A2E35" stroke-width="1.47067" stroke-miterlimit="10"/>
<path d="M258.688 93.9407C257.659 94.9755 255.99 94.9755 254.961 93.9407C253.932 92.9058 253.932 91.228 254.961 90.1931C255.99 89.1583 257.659 89.1583 258.688 90.1931C259.717 91.228 259.717 92.9058 258.688 93.9407Z" fill="white"/>
<path d="M270.499 94.0193C269.47 95.0541 267.801 95.0541 266.772 94.0193C265.743 92.9844 265.743 91.3066 266.772 90.2717C267.801 89.2369 269.47 89.2369 270.499 90.2717C271.528 91.3066 271.528 92.9844 270.499 94.0193Z" fill="white"/>
<path d="M283.167 93.9407C282.138 94.9755 280.469 94.9755 279.44 93.9407C278.412 92.9058 278.412 91.228 279.44 90.1931C280.469 89.1583 282.138 89.1583 283.167 90.1931C284.197 91.228 284.197 92.9058 283.167 93.9407Z" fill="white"/>
<path d="M303.234 164.079H243.493V112.151H303.234V164.079Z" stroke="#1A2E35" stroke-width="1.47067" stroke-miterlimit="10" stroke-linecap="round" stroke-linejoin="round" stroke-dasharray="5.88 5.88"/>
<path d="M381.207 115.798H312.451V112.151H381.207V115.798Z" fill="#1A2E35"/>
<path d="M365.191 123.36H312.451V119.713H365.191V123.36Z" fill="#1A2E35"/>
<path d="M390.987 130.923H312.451V127.233H390.987V130.923Z" fill="#1A2E35"/>
<path d="M379.326 138.27H312.451V134.58H379.326V138.27Z" fill="#1A2E35"/>
<path d="M327.396 475.038C327.396 475.038 295.476 484.243 291.02 485.83C286.966 487.271 275.978 491.142 267.733 489.945C266.919 489.822 266.13 489.652 265.377 489.432C257.025 486.929 253.272 484.597 252.181 479.31C251.076 474.012 255.239 470.142 259.247 467.65C263.253 465.16 284.987 462.56 284.987 462.56L290.231 464.111H290.243L327.396 475.038Z" fill="#204173"/>
<path d="M267.734 489.518C266.921 489.396 266.131 489.225 265.379 489.005C257.026 486.502 253.274 484.17 252.181 478.884C251.076 473.585 255.24 469.715 259.247 467.223C263.253 464.733 284.987 462.133 284.987 462.133L290.232 463.684C285.484 465.882 267.782 467.103 263.921 469.337C260.06 471.571 258.191 475.783 260.473 481.472C261.687 484.5 264.942 487.43 267.734 489.518Z" fill="white"/>
<path d="M322.595 475.919C322.595 475.919 298.623 482.166 289.117 486.164C279.612 490.16 261.476 491.909 255.016 483.665C248.556 475.42 254.271 468.328 260.73 466.753C267.19 465.177 280.253 462.679 287.386 463.677" stroke="#1A2E35" stroke-width="1.47067" stroke-miterlimit="10" stroke-linecap="round" stroke-linejoin="round"/>
<path d="M268.215 489.079C268.215 489.079 256.018 482.354 260.068 472.928C263.056 465.972 279.328 467.479 287.385 463.677" stroke="#1A2E35" stroke-width="1.47067" stroke-miterlimit="10" stroke-linecap="round" stroke-linejoin="round"/>
<path d="M424.533 491.051C424.206 494.335 423.052 497.485 419.75 499.439C417.552 500.746 414.42 501.526 409.94 501.477C398.745 501.331 377.705 493.286 377.705 493.286L358 482.335L368.246 466.023L371.052 461.555L378.299 463.191C378.299 463.191 384.297 466.609 390.332 469.331C396.365 472.055 411.008 472.628 416.168 476.827C421.328 481.016 425.092 485.582 424.533 491.051Z" fill="#204173"/>
<path d="M424.612 491.008C424.285 494.292 423.13 497.442 419.828 499.395C420.448 496.843 420.957 493.315 419.269 489.506C417.084 484.537 409.909 480.154 400.487 479.421C391.077 478.688 383.853 474.257 380.077 472.279C377.127 470.741 370.911 467.383 368.324 465.979L371.13 461.511L378.378 463.147C378.378 463.147 384.375 466.566 390.41 469.287C396.444 472.011 411.087 472.584 416.247 476.784C421.406 480.973 425.171 485.538 424.612 491.008Z" fill="white"/>
<path d="M362.04 485.855C376.067 493.936 392.11 499.755 408.161 501.697C411.745 502.132 415.916 502.193 418.318 499.482C419.656 497.973 420.145 495.838 419.973 493.821C419.538 488.736 415.286 484.701 410.621 482.686C405.955 480.669 400.804 480.188 395.85 479.071C390.917 477.959 386.129 476.197 381.647 473.846C378.086 471.978 374.638 469.708 370.708 468.871C366.778 468.034 362.097 469.049 360 472.496" stroke="#1A2E35" stroke-width="1.47067" stroke-miterlimit="10" stroke-linecap="round" stroke-linejoin="round"/>
<path d="M417.408 500.37C421.034 498.498 424.012 495.06 424.616 491.006C425.33 486.212 422.614 481.393 418.788 478.442C414.961 475.493 410.182 474.108 405.461 473.122C400.739 472.135 395.913 471.473 391.421 469.707C384.516 466.996 377.707 461.637 370.542 463.548" stroke="#1A2E35" stroke-width="1.47067" stroke-miterlimit="10" stroke-linecap="round" stroke-linejoin="round"/>
<path d="M378.427 392.482C377.273 393.08 381.742 380.626 379.616 377.806C377.491 374.974 371.13 375.255 371.13 375.255L371.676 371.848C371.75 371.47 375.453 352.376 375.453 352.376L376.703 350.874C376.703 350.874 389.67 373.229 391.989 381.103C391.989 381.103 377.855 392.482 378.427 392.482ZM294.603 376.024C292.15 377.77 293.462 384.545 293.462 384.545L289.285 380.846L299.763 354.939L304.232 374.828C304.232 374.828 297.056 374.29 294.603 376.024V376.024ZM384.681 313.905L351.34 301.147L350.927 300.988C350.927 300.988 351.048 300.096 351.146 298.802C351.352 296.128 351.461 291.771 350.21 290.293C348.354 288.107 343.084 289.939 337.948 287.571C332.812 285.201 323.305 289.438 323.305 289.438C323.305 289.438 316.446 288.168 313.422 293.15C311.88 297.166 312.414 303.149 312.414 303.149C312.414 303.149 312.196 303.234 311.783 303.381C307.813 304.871 286.201 313.05 281.624 316.335C276.572 319.936 270.988 356.868 269.191 367.709C267.394 378.563 264.201 388.331 265.828 392.066C267.444 395.79 290.67 413.774 304.025 418.414C317.38 423.066 364.768 421.698 364.768 421.698C364.768 421.698 365.545 421.49 366.917 421.05C374.93 418.463 403.365 407.804 418.444 382.666C418.444 382.666 403.838 334.49 384.681 313.905" fill="#204173"/>
<path d="M321.73 233.1L304.523 251.471C304.523 251.471 302.15 253.579 303.092 258.909C304.037 264.239 306.232 268.816 307.891 269.172C309.551 269.527 311.875 269.53 311.875 269.53C311.875 269.53 315.563 277.567 318.176 280.724C318.176 280.724 319.086 293.127 318.599 296.571C318.599 296.571 324.782 302.002 330.604 302.692C336.428 303.382 345.424 294.411 345.424 294.411L347.655 283.428C347.655 283.428 352.934 275.37 353.294 273.226C353.654 271.08 356.067 271.63 357.252 270.572C358.438 269.515 361.184 264.781 361.637 260.31C362.089 255.838 362.121 250.702 356.956 252.21C352.48 251.001 355.282 241.486 355.282 241.486L347.417 234.507L321.73 233.1Z" fill="white"/>
<g opacity="0.5">
<g opacity="0.5">
<path opacity="0.5" d="M351.338 301.147C351.072 301.855 350.78 302.526 350.452 303.149C347.612 308.533 335.239 318.788 335.239 318.788L331.5 307.226L329.448 318.788C325.319 316.981 312.73 306.005 312.73 306.005C312.73 306.005 312.304 304.981 311.783 303.381C312.196 303.234 312.414 303.149 312.414 303.149C312.414 303.149 311.879 297.166 313.422 293.149C316.444 288.168 323.304 289.438 323.304 289.438C323.304 289.438 332.811 285.201 337.947 287.57C343.082 289.938 348.352 288.108 350.21 290.293C352.067 292.478 350.926 300.987 350.926 300.987L351.338 301.147Z" fill="white"/>
</g>
</g>
<g opacity="0.199997">
<g opacity="0.199997">
<path opacity="0.199997" d="M378.426 392.482C377.273 393.079 381.741 380.626 379.616 377.806C377.491 374.974 371.13 375.255 371.13 375.255L371.676 371.848C371.75 371.47 375.452 352.375 375.452 352.375L376.703 350.874C376.703 350.874 389.669 373.228 391.989 381.103C391.989 381.103 377.855 392.482 378.426 392.482ZM384.68 313.905L351.339 301.147L350.927 300.988C350.927 300.988 351.048 300.096 351.146 298.802L350.453 303.148L345.523 309.887C345.523 309.887 353.861 312.912 360.907 316.706C365.806 319.344 368.622 324.708 367.976 330.259L361.83 383.104L359.317 413.114L366.917 421.05C374.93 418.462 403.365 407.804 418.444 382.666C418.444 382.666 403.838 334.49 384.68 313.905" fill="black"/>
</g>
</g>
<g opacity="0.199997">
<g opacity="0.199997">
<path opacity="0.199997" d="M293.461 384.545L289.284 380.846L299.763 354.939L304.231 374.828C304.231 374.828 297.056 374.29 294.602 376.024C292.15 377.769 293.461 384.545 293.461 384.545ZM306.489 377.806L301.304 360.384C301.304 360.384 292.01 328.505 285.635 320.642L287.311 343.062C287.311 343.062 281.841 369.846 276.78 377.806C271.717 385.755 270.624 387.745 276.78 387.745C282.946 387.745 297.905 399.746 297.905 399.746L296.751 389.734L306.489 377.806Z" fill="black"/>
</g>
</g>
<path d="M318.176 280.724C318.176 280.724 319.132 290.117 318.176 294.409" stroke="#1A2E35" stroke-width="1.47067" stroke-miterlimit="10" stroke-linecap="round" stroke-linejoin="round"/>
<path d="M346.377 293.152C346.377 293.152 346.322 288.574 347.416 284.177" stroke="#1A2E35" stroke-width="1.47067" stroke-miterlimit="10" stroke-linecap="round" stroke-linejoin="round"/>
<path d="M348.879 240.104C348.879 240.104 354.532 247.245 354.241 252.637C353.952 258.029 353.517 264.442 353.662 270.708C353.808 276.975 343.662 290.091 338.445 291.257C333.227 292.422 328.734 292.715 325.401 289.362C322.068 286.011 318.733 281.347 314.386 275.372C310.038 269.396 311.053 256.281 311.053 256.281" stroke="#1A2E35" stroke-width="1.47067" stroke-miterlimit="10" stroke-linecap="round" stroke-linejoin="round"/>
<path d="M335.275 261.278C334.929 263.237 334.781 265.229 334.834 267.218C334.878 268.883 335.124 270.682 336.284 271.871C336.908 272.511 337.816 273.024 337.935 273.913C338.04 274.702 337.441 275.418 336.773 275.847C336.107 276.277 335.333 276.543 334.736 277.065" stroke="#1A2E35" stroke-width="1.47067" stroke-miterlimit="10" stroke-linecap="round" stroke-linejoin="round"/>
<path d="M326.299 277.758C326.299 277.758 326.953 281.993 332.602 282.88" stroke="#1A2E35" stroke-width="1.47067" stroke-miterlimit="10" stroke-linecap="round" stroke-linejoin="round"/>
<path d="M326.887 264.508C326.887 265.732 326.36 266.724 325.712 266.724C325.062 266.724 324.536 265.732 324.536 264.508C324.536 263.284 325.062 262.291 325.712 262.291C326.36 262.291 326.887 263.284 326.887 264.508Z" fill="#1A2E35"/>
<path d="M343.738 265.04C343.738 266.265 343.211 267.257 342.562 267.257C341.913 267.257 341.386 266.265 341.386 265.04C341.386 263.816 341.913 262.825 342.562 262.825C343.211 262.825 343.738 263.816 343.738 265.04Z" fill="#1A2E35"/>
<path d="M340.338 259.674C340.338 259.674 345.817 254.165 350.452 260.311" stroke="#1A2E35" stroke-width="2.94133" stroke-miterlimit="10" stroke-linecap="round" stroke-linejoin="round"/>
<path d="M328.748 259.78C328.748 259.78 325.272 255.86 319.792 259.78" stroke="#1A2E35" stroke-width="2.94133" stroke-miterlimit="10" stroke-linecap="round" stroke-linejoin="round"/>
<path d="M318.601 285.886C318.601 285.886 321.957 295.187 329.451 297.825C336.946 300.463 346.897 286.773 346.897 286.773L346.377 284.992C346.377 284.992 339.856 293.512 332.603 292.059C325.349 290.607 318.176 280.724 318.176 280.724L318.601 285.886Z" fill="#1A2E35"/>
<path d="M311.876 269.171C311.876 269.171 307.408 270.758 306.221 267.257C305.032 263.755 300.959 254.541 304.523 251.47C308.087 248.399 310.951 255.525 310.951 255.525" stroke="#1A2E35" stroke-width="1.47067" stroke-miterlimit="10" stroke-linecap="round" stroke-linejoin="round"/>
<path d="M353.654 271.08C353.654 271.08 357.806 271.92 358.996 268.419C360.183 264.919 364.256 255.704 360.692 252.632C357.128 249.561 354.265 256.688 354.265 256.688" stroke="#1A2E35" stroke-width="1.47067" stroke-miterlimit="10" stroke-linecap="round" stroke-linejoin="round"/>
<path d="M310.952 264.508C312.189 264.451 314.219 263.238 314.872 262.179C315.523 261.119 315.799 259.874 316.011 258.646C316.416 256.296 316.623 253.91 316.632 251.525C316.635 250.592 316.611 249.642 316.881 248.75C317.164 247.821 317.748 247.017 318.374 246.279C319.934 244.442 321.811 242.889 323.294 240.989C324.777 239.088 325.865 236.681 325.466 234.301C325.466 234.301 335.597 243.613 350.201 240.733C358.064 239.183 365.61 232.244 364.691 223.524C364.364 220.42 362.097 218.189 359.151 217.452C355.265 216.48 351.773 218.564 348.252 219.899C341.831 222.334 335.55 218.154 329.064 217.452C323.517 216.852 316.708 217.544 313.82 223.09C313.82 223.09 303.857 224.267 299.493 232.495C295.128 240.724 303.424 252.116 303.424 252.116C303.424 252.116 306.763 248.051 311.054 256.28L310.952 264.508Z" fill="#1A2E35"/>
<path d="M349.508 238C349.508 238 346.931 251.5 353.655 258.038C353.655 258.038 355.125 253.98 356.618 252.989C356.618 252.989 360.359 245.856 355.44 238C350.521 230.143 349.508 238 349.508 238Z" fill="#1A2E35"/>
<g opacity="0.199997">
<g opacity="0.199997">
<path opacity="0.199997" d="M361.823 222.635C360.829 226.356 357.7 229.234 354.151 230.688C344.818 234.51 335.752 230.27 326.407 229.44C318.77 228.762 310.351 235.681 309.818 243.565" stroke="white" stroke-width="1.47067" stroke-miterlimit="10" stroke-linecap="round" stroke-linejoin="round"/>
</g>
</g>
<g opacity="0.199997">
<g opacity="0.199997">
<path opacity="0.199997" d="M304.021 241.485C304.162 235.279 308.24 229.338 313.963 227.006" stroke="white" stroke-width="1.47067" stroke-miterlimit="10" stroke-linecap="round" stroke-linejoin="round"/>
</g>
</g>
<path d="M316.022 293.152C316.022 293.152 322.172 299.965 330.558 303.15C330.558 303.15 341.729 299.893 347.416 292.059" stroke="#1A2E35" stroke-width="1.47067" stroke-miterlimit="10" stroke-linecap="round" stroke-linejoin="round"/>
<path d="M333.193 264.508C333.193 269.999 328.768 274.45 323.307 274.45C317.846 274.45 313.419 269.999 313.419 264.508C313.419 259.017 317.846 254.566 323.307 254.566C328.768 254.566 333.193 259.017 333.193 264.508Z" stroke="#1A2E35" stroke-width="1.47067" stroke-miterlimit="10" stroke-linecap="round" stroke-linejoin="round"/>
<path d="M355.282 264.508C355.282 269.999 350.855 274.45 345.395 274.45C339.935 274.45 335.508 269.999 335.508 264.508C335.508 259.017 339.935 254.566 345.395 254.566C350.855 254.566 355.282 259.017 355.282 264.508Z" stroke="#1A2E35" stroke-width="1.47067" stroke-miterlimit="10" stroke-linecap="round" stroke-linejoin="round"/>
<path d="M318.175 289.444C318.175 289.444 315.169 290.056 313.419 293.152C311.669 296.248 312.725 306.001 312.725 306.001C312.725 306.001 321.758 314.99 329.45 318.783L331.72 305.951L335.242 318.783C335.242 318.783 347.154 310.311 350.452 303.151C350.452 303.151 351.528 294.802 350.452 292.059C349.377 289.317 346.897 289.444 346.897 289.444" stroke="#1A2E35" stroke-width="1.47067" stroke-miterlimit="10" stroke-linecap="round" stroke-linejoin="round"/>
<path d="M304.021 375.258C304.021 375.258 300.495 351.468 295.794 341.761" stroke="#1A2E35" stroke-width="1.47067" stroke-miterlimit="10" stroke-linecap="round" stroke-linejoin="round"/>
<path d="M285.636 320.642C285.636 320.642 290.1 326.934 292.944 332.939" stroke="#1A2E35" stroke-width="1.47067" stroke-miterlimit="10" stroke-linecap="round" stroke-linejoin="round"/>
<path d="M378.427 338.403C379.669 333.664 380.99 329.506 382.31 326.791" stroke="#1A2E35" stroke-width="1.47067" stroke-miterlimit="10" stroke-linecap="round" stroke-linejoin="round"/>
<path d="M371.128 375.258C371.128 375.258 373.675 358.949 376.707 345.507" stroke="#1A2E35" stroke-width="1.47067" stroke-miterlimit="10" stroke-linecap="round" stroke-linejoin="round"/>
<path d="M375.447 352.37C377.874 349.113 381.391 346.694 385.289 345.603" stroke="#1A2E35" stroke-width="1.47067" stroke-miterlimit="10" stroke-linecap="round" stroke-linejoin="round"/>
<path d="M350.931 300.987C350.931 300.987 371.446 309.227 384.685 313.907C384.685 313.907 400.975 329.311 418.439 382.667C418.439 382.667 402.43 409.739 371.992 418.418" stroke="#1A2E35" stroke-width="1.47067" stroke-miterlimit="10" stroke-linecap="round" stroke-linejoin="round"/>
<path d="M377.278 393.45L391.985 381.102C391.985 381.102 399.767 375.156 407.858 379.224" stroke="#1A2E35" stroke-width="1.47067" stroke-miterlimit="10" stroke-linecap="round" stroke-linejoin="round"/>
<path d="M376.708 350.877C376.708 350.877 388.875 368.897 391.986 381.102" stroke="#1A2E35" stroke-width="1.47067" stroke-miterlimit="10" stroke-linecap="round" stroke-linejoin="round"/>
<path d="M293.594 385.229L289.29 381.101C289.29 381.101 282.9 379.979 275.665 384.856" stroke="#1A2E35" stroke-width="1.47067" stroke-miterlimit="10" stroke-linecap="round" stroke-linejoin="round"/>
<path d="M289.29 381.102C289.29 381.102 294.635 363.444 299.908 354.329" stroke="#1A2E35" stroke-width="1.47067" stroke-miterlimit="10" stroke-linecap="round" stroke-linejoin="round"/>
<path d="M312.409 303.151C312.409 303.151 282.899 314.285 280.006 317.527C277.112 320.77 266.116 383.046 265.826 390.172C265.568 396.543 288.553 410.857 299.908 416.891" stroke="#1A2E35" stroke-width="1.47067" stroke-miterlimit="10" stroke-linecap="round" stroke-linejoin="round"/>
<path d="M419.242 293.152H385.616C381.646 293.152 378.427 289.915 378.427 285.922V266.086C378.427 262.093 381.646 258.857 385.616 258.857H419.242C423.212 258.857 426.432 262.093 426.432 266.086V285.922C426.432 289.915 423.212 293.152 419.242 293.152Z" fill="white"/>
<path d="M419.242 293.152H385.616C381.646 293.152 378.427 289.915 378.427 285.922V266.086C378.427 262.093 381.646 258.857 385.616 258.857H419.242C423.212 258.857 426.432 262.093 426.432 266.086V285.922C426.432 289.915 423.212 293.152 419.242 293.152Z" stroke="#1A2E35" stroke-width="1.47067" stroke-miterlimit="10" stroke-linecap="round" stroke-linejoin="round"/>
<path d="M393.917 269.171L384.686 274.999L393.252 282.639" stroke="#1A2E35" stroke-width="1.47067" stroke-miterlimit="10" stroke-linecap="round" stroke-linejoin="round"/>
<path d="M410.736 283.193L419.032 276.084L409.456 269.771" stroke="#1A2E35" stroke-width="1.47067" stroke-miterlimit="10" stroke-linecap="round" stroke-linejoin="round"/>
<path d="M398.403 287.567L405.217 266.082" stroke="#1A2E35" stroke-width="1.47067" stroke-miterlimit="10" stroke-linecap="round" stroke-linejoin="round"/>
<path d="M334.477 324.189C334.477 325.268 333.608 326.142 332.535 326.142C331.464 326.142 330.596 325.268 330.596 324.189C330.596 323.111 331.464 322.238 332.535 322.238C333.608 322.238 334.477 323.111 334.477 324.189Z" fill="#1A2E35"/>
<path d="M368.624 428.47H301.463C300.595 428.47 299.891 427.761 299.891 426.886C299.891 426.012 300.595 425.304 301.463 425.304H368.624C369.494 425.304 370.198 426.012 370.198 426.886C370.198 427.761 369.494 428.47 368.624 428.47Z" fill="#1A2E35"/>
<path d="M370.974 423.222L379.974 380.723C380.57 377.909 378.436 375.257 375.575 375.257H297.109C294.274 375.257 292.147 377.862 292.696 380.656L300.765 421.741C301.173 423.823 302.965 425.338 305.074 425.387L366.472 426.8C368.633 426.85 370.524 425.348 370.974 423.222Z" fill="white"/>
<path d="M370.974 423.222L379.974 380.723C380.57 377.909 378.436 375.257 375.575 375.257H297.109C294.274 375.257 292.147 377.862 292.696 380.656L300.765 421.741C301.173 423.823 302.965 425.338 305.074 425.387L366.472 426.8C368.633 426.85 370.524 425.348 370.974 423.222Z" stroke="#1A2E35" stroke-width="1.47067" stroke-miterlimit="10" stroke-linecap="round" stroke-linejoin="round"/>
<path d="M342.339 399.749C342.339 403.229 339.534 406.048 336.074 406.048C332.615 406.048 329.81 403.229 329.81 399.749C329.81 396.269 332.615 393.451 336.074 393.451C339.534 393.451 342.339 396.269 342.339 399.749Z" fill="#1A2E35"/>
<path d="M354.65 379.292H363.974" stroke="#1A2E35" stroke-width="1.47067" stroke-miterlimit="10" stroke-linecap="round" stroke-linejoin="round"/>
<path d="M310.13 379.292H345.518" stroke="#1A2E35" stroke-width="1.47067" stroke-miterlimit="10" stroke-linecap="round" stroke-linejoin="round"/>
<path d="M371.151 468.329L363.997 487.21C363.997 487.21 345.757 482.586 322.383 477.769C297.944 472.733 272.42 466.214 259.179 442.856C257.565 440.008 256.492 436.644 257.247 433.455C259.157 425.387 269.595 423.197 276.475 422.389C280.793 421.882 285.151 421.714 289.496 421.653C291.711 421.622 299.019 420.455 300.787 421.763C300.787 421.764 305.373 425.156 309.28 426.824C313.187 428.492 370.22 425.326 370.22 425.326C370.22 425.326 371.916 421.725 372.014 418.439C380.98 413.857 401.739 409.976 410.511 411.69C424.305 414.388 432.351 422.479 430.818 430.955C429.285 439.433 398.845 462.165 371.151 468.329Z" fill="#1A2E35"/>
<path d="M371.128 468.308C371.128 468.308 353.78 463.684 339.602 454.052C325.426 444.419 314.35 433.245 294.599 435.557" stroke="white" stroke-width="1.47067" stroke-miterlimit="10" stroke-linecap="round" stroke-linejoin="round"/>
<path d="M336.342 451.78C345.297 449.188 351.869 443.364 359.055 437.771C366.666 431.845 374.715 426.107 383.372 421.703" stroke="white" stroke-width="1.47067" stroke-miterlimit="10" stroke-linecap="round" stroke-linejoin="round"/>
<path d="M333.193 266.081H335.821" stroke="#1A2E35" stroke-width="1.47067" stroke-miterlimit="10" stroke-linecap="round" stroke-linejoin="round"/>
</svg>
