<svg width="35" height="35" viewBox="0 0 35 35" fill="none" xmlns="http://www.w3.org/2000/svg">
<path d="M31.5994 5.87305H3.3924C1.5196 5.87305 0 7.39264 0 9.26544V25.7346C0 27.6074 1.5196 29.127 3.3924 29.127H31.6076C33.4804 29.127 35 27.6074 35 25.7346V9.26544C34.9918 7.39264 33.4722 5.87305 31.5994 5.87305ZM33.3572 25.7264H33.349C33.349 26.6874 32.5686 27.476 31.5994 27.476H3.3924C2.43135 27.476 1.64281 26.6956 1.64281 25.7264V9.26544C1.64281 8.3044 2.42314 7.51585 3.3924 7.51585H31.6076C32.5686 7.51585 33.3572 8.29619 33.3572 9.26544V25.7264Z" fill="white"/>
<path d="M30.767 18.8513H21.1319C20.6802 18.8513 20.3105 19.2209 20.3105 19.6727C20.3105 20.1245 20.6802 20.4941 21.1319 20.4941H30.767C31.2188 20.4941 31.5884 20.1245 31.5884 19.6727C31.5884 19.2209 31.2188 18.8513 30.767 18.8513Z" fill="white"/>
<path d="M26.4875 14.5798H21.1319C20.6802 14.5798 20.3105 14.9495 20.3105 15.4012C20.3105 15.853 20.6802 16.2226 21.1319 16.2226H26.4875C26.9393 16.2226 27.3089 15.853 27.3089 15.4012C27.3089 14.9495 26.9393 14.5798 26.4875 14.5798Z" fill="white"/>
<path d="M16.4357 9.97998H5.90532C4.50894 9.97998 3.3754 11.1135 3.36719 12.5099V22.6378C3.36719 24.0342 4.50072 25.1677 5.89711 25.1759H16.4357C17.8321 25.1759 18.9656 24.0424 18.9739 22.646V12.5181C18.9739 11.1135 17.8403 9.97998 16.4357 9.97998ZM7.71241 23.451C7.88491 22.0546 9.12523 20.9046 10.6284 20.9046H11.9016C13.4047 20.9046 14.6451 22.0546 14.8176 23.451H7.71241ZM17.331 12.4853V22.5885C17.3393 23.0567 16.9696 23.4428 16.5014 23.451C16.485 23.451 16.4768 23.451 16.4604 23.451C16.2796 21.1511 14.3083 19.2618 11.9016 19.2618H10.6284C8.22168 19.2618 6.2421 21.1511 6.06961 23.451H5.93818C5.44534 23.451 5.00999 23.0814 5.00999 22.5885V12.4853C5.00999 11.9924 5.44534 11.6228 5.93818 11.6228H16.4686C16.9368 11.6146 17.3228 11.9842 17.331 12.4442C17.331 12.4606 17.331 12.4688 17.331 12.4853Z" fill="white"/>
<path d="M13.4523 13.4055C12.8773 12.8223 12.0888 12.502 11.2756 12.502C9.57527 12.502 8.19531 13.8819 8.19531 15.5822C8.19531 17.2825 9.57527 18.6624 11.2756 18.6624C12.9759 18.6624 14.3558 17.2825 14.3558 15.5822C14.3558 14.769 14.0273 13.9805 13.4523 13.4055ZM12.2859 16.6007C11.7273 17.1593 10.8156 17.1593 10.257 16.5925C9.69848 16.034 9.69848 15.1222 10.2652 14.5637C10.8238 14.0051 11.7356 14.0051 12.2941 14.5719C12.5652 14.8429 12.713 15.2044 12.713 15.5904C12.713 15.9683 12.557 16.3297 12.2859 16.6007Z" fill="white"/>
</svg>
