<svg width="16" height="16" viewBox="0 0 16 16" fill="none" xmlns="http://www.w3.org/2000/svg">
<path d="M8.31828 15.685C8.31828 15.8586 8.17686 16 8.003 16C7.82946 16 7.68804 15.8586 7.68804 15.685C7.68804 15.5115 7.82946 15.3701 8.003 15.3701C8.17686 15.3701 8.31828 15.5115 8.31828 15.685ZM1.386 15.685V15.2866C1.386 13.1867 2.81025 12.0416 3.43387 11.6677C4.28083 11.1603 5.19056 10.7767 6.1419 10.5246V10.0175C5.98329 9.87751 5.83828 9.7183 5.71015 9.54085C5.33289 9.01836 5.02499 8.45187 4.79293 7.85376C4.58055 7.82476 4.38637 7.68961 4.28653 7.47817C4.19132 7.27663 3.53088 6.0549 3.42968 5.83748C3.17315 5.28627 3.50842 4.7417 3.93346 4.56639C4.00423 4.5372 4.07699 4.51562 4.151 4.50331C4.08218 4.22176 4.04741 3.93222 4.04741 3.63783C4.04741 1.63191 5.67932 0 7.68521 0C8.03771 0 8.37157 0.134835 8.62524 0.379654C8.62795 0.382268 8.6322 0.382268 8.63491 0.379654C8.88864 0.134835 9.22247 0 9.57497 0C10.9383 0 12.0474 1.10913 12.0474 2.47244V3.04602C12.0474 3.53991 11.9796 4.02608 11.8458 4.49732C11.9214 4.50957 11.9969 4.52932 12.0685 4.56173C12.5915 4.79855 12.7957 5.38378 12.5723 5.83282C12.4655 6.04746 11.8107 7.27187 11.7154 7.47351C11.6156 7.68482 11.4215 7.81997 11.2093 7.84907C10.9771 8.44863 10.6687 9.01644 10.2907 9.54009C10.1624 9.71776 10.0172 9.8772 9.85844 10.0174V10.5246C10.8097 10.7767 11.7195 11.1603 12.5665 11.6677C13.1901 12.0415 14.6143 13.1867 14.6143 15.2866V15.685C14.6143 15.859 14.4733 16 14.2994 16H9.42096C9.42064 16 9.42064 16 9.42033 16C9.23982 16 9.09406 15.8473 9.10606 15.664C9.11702 15.4966 9.26363 15.3701 9.43138 15.3701H13.9844C13.9844 14.0401 13.317 12.852 12.2424 12.2082C11.4837 11.7536 10.6713 11.4042 9.82237 11.1673C9.65261 12.0182 8.9002 12.6614 8.00017 12.6614C7.10017 12.6614 6.34773 12.0182 6.17796 11.1673C5.32927 11.4042 4.51658 11.7536 3.75796 12.2082C2.68332 12.852 2.01592 14.0036 2.01592 15.3701H6.586C6.76678 15.3701 6.91236 15.5235 6.89992 15.7069C6.88855 15.874 6.74203 16 6.57456 16H1.70096C1.527 16 1.386 15.859 1.386 15.685V15.685ZM4.67847 3.68608C4.70754 3.65191 5.14215 3.11811 5.89015 3.11811C6.26326 3.11811 6.62162 3.24813 6.9054 3.47994C7.16681 3.69345 7.49967 3.81102 7.84269 3.81102C8.65444 3.81102 9.30471 3.15814 9.32307 2.32469C9.32685 2.15351 9.46666 2.01669 9.6379 2.01666C9.80911 2.01663 9.94899 2.15339 9.95286 2.32457C9.9619 2.72677 10.1784 3.07553 10.5179 3.23474C10.8518 3.39134 11.1312 3.62841 11.3361 3.91849C11.3902 3.63209 11.4175 3.34063 11.4175 3.04605V2.47244C11.4175 1.45647 10.591 0.629921 9.575 0.629921C9.38653 0.629921 9.20804 0.702016 9.07239 0.832913C8.82439 1.07235 8.43582 1.07231 8.18779 0.832913C8.05217 0.702016 7.87368 0.629921 7.68521 0.629921C6.02666 0.629921 4.66259 1.96189 4.67847 3.68608V3.68608ZM9.22852 10.4369C8.48278 10.7889 7.62121 10.8296 6.77182 10.4371V10.8031C6.77182 11.4805 7.32285 12.0315 8.00017 12.0315C8.67749 12.0315 9.22852 11.4805 9.22852 10.8031V10.4369ZM9.77995 9.1714C10.1706 8.63024 10.4804 8.03776 10.6998 7.41014C10.7383 7.3 10.8846 7.13335 11.1325 7.2309C11.2494 6.98198 11.9074 5.76532 12.0027 5.56375C12.0754 5.4102 11.9875 5.21024 11.8224 5.14157C11.7291 5.1028 11.6259 5.10957 11.5353 5.15591C11.3398 5.25578 11.098 5.13792 11.073 4.92186C11.0164 4.43137 10.6984 4.01518 10.2504 3.80507C10.0239 3.69887 9.83078 3.54309 9.68033 3.35244C9.58556 3.52296 9.46253 3.67638 9.32744 3.82195C8.72965 4.46636 7.47995 4.75288 6.50691 3.96784C6.12732 3.66157 5.56278 3.68 5.21447 4.03335C5.02499 4.22557 4.91355 4.48504 4.91355 4.75014V4.87414C4.91456 5.10548 4.6687 5.25991 4.4573 5.15565C4.36974 5.11247 4.26965 5.11055 4.17957 5.14633C4.03674 5.20302 3.91481 5.38794 3.99922 5.56847C4.09371 5.77055 4.76622 7.00542 4.86581 7.23096C5.14316 7.13442 5.27333 7.33254 5.30215 7.41468C5.52181 8.04079 5.83091 8.63209 6.22086 9.17216C6.64023 9.75294 7.28877 10.086 8.00007 10.086C8.71167 10.0859 9.36042 9.75253 9.77995 9.1714ZM14.7718 1.88976V0.314961C14.7718 0.141008 14.6308 0 14.4569 0H12.8821C12.7081 0 12.5671 0.141008 12.5671 0.314961C12.5671 0.488913 12.7081 0.629921 12.8821 0.629921H14.1419V1.88976C14.1419 2.06372 14.2829 2.20472 14.4569 2.20472C14.6308 2.20472 14.7718 2.06372 14.7718 1.88976ZM14.7718 10.4882V8.91339C14.7718 8.73943 14.6308 8.59843 14.4569 8.59843C14.2829 8.59843 14.1419 8.73943 14.1419 8.91339V10.1732H12.8821C12.7081 10.1732 12.5671 10.3142 12.5671 10.4882C12.5671 10.6621 12.7081 10.8031 12.8821 10.8031H14.4569C14.6308 10.8031 14.7718 10.6621 14.7718 10.4882ZM1.85844 1.88976V0.629921H3.11828C3.29223 0.629921 3.43324 0.488913 3.43324 0.314961C3.43324 0.141008 3.29223 0 3.11828 0H1.54348C1.36952 0 1.22852 0.141008 1.22852 0.314961V1.88976C1.22852 2.06372 1.36952 2.20472 1.54348 2.20472C1.71743 2.20472 1.85844 2.06372 1.85844 1.88976ZM3.43324 10.4882C3.43324 10.3142 3.29223 10.1732 3.11828 10.1732H1.85844V8.91339C1.85844 8.73943 1.71743 8.59843 1.54348 8.59843C1.36952 8.59843 1.22852 8.73943 1.22852 8.91339V10.4882C1.22852 10.6621 1.36952 10.8031 1.54348 10.8031H3.11828C3.29223 10.8031 3.43324 10.6621 3.43324 10.4882Z" fill="#204173"/>
</svg>
