<svg width="371" height="371" viewBox="0 0 371 371" fill="none" xmlns="http://www.w3.org/2000/svg">
<g clip-path="url(#clip0)">
<path d="M38.3793 332.621H25.5862C11.4553 332.621 0 321.165 0 307.035V63.9656C0 49.8347 11.4553 38.3794 25.5862 38.3794H345.414C359.545 38.3794 371 49.8347 371 63.9656V307.035C371 321.165 359.545 332.621 345.414 332.621H38.3793Z" fill="#35495E"/>
<path d="M371 63.9656V89.5518H0V63.9656C0 49.8347 11.4553 38.3794 25.5862 38.3794H345.414C359.545 38.3794 371 49.8347 371 63.9656Z" fill="#3B97D3"/>
<path d="M204.69 57.5688H166.311C162.778 57.5688 159.914 60.4327 159.914 63.9654C159.914 67.4981 162.778 70.3619 166.311 70.3619H204.69C208.223 70.3619 211.086 67.4981 211.086 63.9654C211.086 60.4327 208.223 57.5688 204.69 57.5688Z" fill="#2980BA"/>
<path d="M345.415 57.5688H275.053C271.52 57.5688 268.656 60.4327 268.656 63.9654C268.656 67.4981 271.52 70.3619 275.053 70.3619H345.415C348.948 70.3619 351.811 67.4981 351.811 63.9654C351.811 60.4327 348.948 57.5688 345.415 57.5688Z" fill="#2980BA"/>
<path d="M25.586 70.3619C29.1187 70.3619 31.9826 67.4981 31.9826 63.9654C31.9826 60.4327 29.1187 57.5688 25.586 57.5688C22.0533 57.5688 19.1895 60.4327 19.1895 63.9654C19.1895 67.4981 22.0533 70.3619 25.586 70.3619Z" fill="#FF5364"/>
<path d="M51.1719 70.3619C54.7047 70.3619 57.5685 67.4981 57.5685 63.9654C57.5685 60.4327 54.7047 57.5688 51.1719 57.5688C47.6392 57.5688 44.7754 60.4327 44.7754 63.9654C44.7754 67.4981 47.6392 70.3619 51.1719 70.3619Z" fill="#F0C419"/>
<path d="M76.7579 70.3619C80.2906 70.3619 83.1544 67.4981 83.1544 63.9654C83.1544 60.4327 80.2906 57.5688 76.7579 57.5688C73.2252 57.5688 70.3613 60.4327 70.3613 63.9654C70.3613 67.4981 73.2252 70.3619 76.7579 70.3619Z" fill="#65DDB9"/>
<path d="M108.742 236.673C108.742 240.205 111.606 243.069 115.138 243.069C118.671 243.069 121.535 240.205 121.535 236.673V223.88H134.328C137.861 223.88 140.725 221.016 140.725 217.483C140.725 213.95 137.861 211.086 134.328 211.086H121.535V198.293C121.535 194.761 118.671 191.897 115.138 191.897C111.606 191.897 108.742 194.761 108.742 198.293V211.086H75.4094L120.588 137.68C122.213 134.695 121.219 130.961 118.326 129.177C115.434 127.394 111.651 128.184 109.714 130.976L64.5161 204.389C62.0907 208.337 61.9891 213.287 64.2505 217.331C66.5118 221.374 70.7828 223.879 75.4158 223.88H108.742V236.673Z" fill="#E64C3C"/>
<path d="M300.639 211.086H287.846V198.293C287.846 194.761 284.982 191.897 281.449 191.897C277.916 191.897 275.052 194.761 275.052 198.293V211.086H241.72L286.899 137.68C288.249 135.734 288.413 133.202 287.327 131.098C286.24 128.994 284.08 127.663 281.712 127.637C279.345 127.611 277.156 128.896 276.025 130.976L230.827 204.389C228.401 208.337 228.3 213.287 230.561 217.331C232.822 221.374 237.093 223.879 241.726 223.879H275.052V236.673C275.052 240.205 277.916 243.069 281.449 243.069C284.982 243.069 287.846 240.205 287.846 236.673V223.879H300.639C304.171 223.879 307.035 221.016 307.035 217.483C307.035 213.95 304.171 211.086 300.639 211.086Z" fill="#E64C3C"/>
<path d="M179.104 243.069H191.897C206.028 243.069 217.483 231.614 217.483 217.483V153.517C217.483 139.386 206.028 127.931 191.897 127.931H179.104C164.973 127.931 153.518 139.386 153.518 153.517V217.483C153.518 231.614 164.973 243.069 179.104 243.069ZM166.311 153.517C166.311 146.452 172.038 140.724 179.104 140.724H191.897C198.962 140.724 204.69 146.452 204.69 153.517V217.483C204.69 224.548 198.962 230.276 191.897 230.276H179.104C172.038 230.276 166.311 224.548 166.311 217.483V153.517Z" fill="#E64C3C"/>
<path d="M262.258 275.052H108.74C105.208 275.052 102.344 277.916 102.344 281.448C102.344 284.981 105.208 287.845 108.74 287.845H262.258C265.79 287.845 268.654 284.981 268.654 281.448C268.654 277.916 265.79 275.052 262.258 275.052Z" fill="#C03A2B"/>
<path d="M204.69 300.638H166.311C162.778 300.638 159.914 303.502 159.914 307.035C159.914 310.567 162.778 313.431 166.311 313.431H204.69C208.223 313.431 211.086 310.567 211.086 307.035C211.086 303.502 208.223 300.638 204.69 300.638Z" fill="#C03A2B"/>
</g>
<defs>
<clipPath id="clip0">
<rect width="371" height="371" fill="white"/>
</clipPath>
</defs>
</svg>
