<svg width="39" height="39" viewBox="0 0 39 39" fill="none" xmlns="http://www.w3.org/2000/svg">
<g filter="url(#filter0_d)">
<circle cx="19.5" cy="15.5" r="15.5" fill="white"/>
</g>
<g clip-path="url(#clip0)">
<path d="M28.6385 10.1958C28.2477 9.78632 27.7079 9.54437 27.0938 9.54437H24.0043V9.50715C24.0043 9.04187 23.8182 8.5952 23.5018 8.29742C23.1854 7.98103 22.7574 7.79492 22.2921 7.79492H16.7087C16.2248 7.79492 15.7968 7.98103 15.4804 8.29742C15.164 8.61381 14.9779 9.04187 14.9779 9.50715V9.54437H11.9071C11.2929 9.54437 10.7532 9.78632 10.3623 10.1958C9.97149 10.5866 9.71094 11.1449 9.71094 11.7405V21.0089C9.71094 21.623 9.95288 22.1627 10.3623 22.5536C10.7532 22.9444 11.3115 23.205 11.9071 23.205H27.0938C27.7079 23.205 28.2477 22.963 28.6385 22.5536C29.0293 22.1627 29.2899 21.6044 29.2899 21.0089V11.7405C29.2899 11.1263 29.0479 10.5866 28.6385 10.1958ZM28.3221 21.0089H28.3035C28.3035 21.3439 28.1732 21.6416 27.9499 21.865C27.7265 22.0883 27.4288 22.2186 27.0938 22.2186H11.9071C11.5721 22.2186 11.2743 22.0883 11.0509 21.865C10.8276 21.6416 10.6973 21.3439 10.6973 21.0089V11.7405C10.6973 11.4055 10.8276 11.1077 11.0509 10.8844C11.2743 10.661 11.5721 10.5308 11.9071 10.5308H15.499C15.7782 10.5308 16.0015 10.3074 16.0015 10.0283V9.48854C16.0015 9.28382 16.076 9.0977 16.2062 8.96743C16.3365 8.83715 16.5226 8.7627 16.7273 8.7627H22.2921C22.4968 8.7627 22.6829 8.83715 22.8132 8.96743C22.9435 9.0977 23.0179 9.28382 23.0179 9.48854V10.0283C23.0179 10.3074 23.2413 10.5308 23.5204 10.5308H27.1124C27.4474 10.5308 27.7452 10.661 27.9685 10.8844C28.1918 11.1077 28.3221 11.4055 28.3221 11.7405V21.0089Z" fill="#204173"/>
<path d="M19.5002 11.7964C18.2347 11.7964 17.0808 12.3175 16.2619 13.1364C15.4244 13.9739 14.9219 15.1092 14.9219 16.3747C14.9219 17.6403 15.443 18.7942 16.2619 19.6131C17.0994 20.4506 18.2347 20.9531 19.5002 20.9531C20.7658 20.9531 21.9197 20.432 22.7386 19.6131C23.5761 18.7756 24.0786 17.6403 24.0786 16.3747C24.0786 15.1092 23.5575 13.9553 22.7386 13.1364C21.9197 12.3175 20.7658 11.7964 19.5002 11.7964ZM22.0313 18.9245C21.38 19.5573 20.4866 19.9667 19.5002 19.9667C18.5138 19.9667 17.6205 19.5573 16.9691 18.9245C16.3177 18.2731 15.9269 17.3797 15.9269 16.3934C15.9269 15.407 16.3363 14.5136 16.9691 13.8622C17.6205 13.2108 18.5138 12.82 19.5002 12.82C20.4866 12.82 21.38 13.2294 22.0313 13.8622C22.6827 14.5136 23.0736 15.407 23.0736 16.3934C23.0922 17.3797 22.6827 18.2731 22.0313 18.9245Z" fill="#204173"/>
<path d="M26.1268 13.6015C26.6304 13.6015 27.0387 13.1932 27.0387 12.6895C27.0387 12.1859 26.6304 11.7776 26.1268 11.7776C25.6231 11.7776 25.2148 12.1859 25.2148 12.6895C25.2148 13.1932 25.6231 13.6015 26.1268 13.6015Z" fill="#204173"/>
</g>
<defs>
<filter id="filter0_d" x="0" y="0" width="39" height="39" filterUnits="userSpaceOnUse" color-interpolation-filters="sRGB">
<feFlood flood-opacity="0" result="BackgroundImageFix"/>
<feColorMatrix in="SourceAlpha" type="matrix" values="0 0 0 0 0 0 0 0 0 0 0 0 0 0 0 0 0 0 127 0"/>
<feOffset dy="4"/>
<feGaussianBlur stdDeviation="2"/>
<feColorMatrix type="matrix" values="0 0 0 0 0 0 0 0 0 0 0 0 0 0 0 0 0 0 0.25 0"/>
<feBlend mode="normal" in2="BackgroundImageFix" result="effect1_dropShadow"/>
<feBlend mode="normal" in="SourceGraphic" in2="effect1_dropShadow" result="shape"/>
</filter>
<clipPath id="clip0">
<rect width="19.5789" height="19.5789" fill="white" transform="translate(9.71094 5.71045)"/>
</clipPath>
</defs>
</svg>
